%FSLAX45Y45*%
G04 Gerber Fmt 4.5, Leading zero omitted, Abs format (unit mm)*
G04 Created by KiCad (PCBNEW 4.0.2-stable) date 24/04/2017 01:49:15 p.m.*
%MOMM*%
G01*
G04 APERTURE LIST*
%ADD10C,0.127000*%
%ADD11C,0.150000*%
%ADD12C,0.200000*%
%ADD13C,0.300000*%
G04 APERTURE END LIST*
D10*
D11*
X15729639Y-15600000D02*
G75*
G03X15729639Y-15600000I-129639J0D01*
G01*
X14000000Y-15800000D02*
X14000000Y-11912000D01*
X17200000Y-15800000D02*
X14000000Y-15800000D01*
X17200000Y-11912000D02*
X17200000Y-15800000D01*
X14000000Y-11912000D02*
X17200000Y-11912000D01*
D12*
X14372500Y-14092500D02*
X14412500Y-14132500D01*
X14412500Y-14092500D02*
X14372500Y-14132500D01*
X15010000Y-13835000D02*
X15050000Y-13875000D01*
X15050000Y-13835000D02*
X15010000Y-13875000D01*
X15112500Y-15012500D02*
X15152500Y-15052500D01*
X15152500Y-15012500D02*
X15112500Y-15052500D01*
X15270000Y-15222500D02*
G75*
G03X15270000Y-15222500I-25000J0D01*
G01*
X15280000Y-15207500D02*
X15210000Y-15207500D01*
X15280000Y-15237500D02*
X15210000Y-15237500D01*
X15210000Y-15207500D02*
G75*
G03X15210000Y-15237500I0J-15000D01*
G01*
X15280000Y-15237500D02*
G75*
G03X15280000Y-15207500I0J15000D01*
G01*
X15545000Y-15006500D02*
G75*
G03X15545000Y-15006500I-25000J0D01*
G01*
X15575000Y-14991500D02*
X15465000Y-14991500D01*
X15575000Y-15021500D02*
X15465000Y-15021500D01*
X15465000Y-14991500D02*
G75*
G03X15465000Y-15021500I0J-15000D01*
G01*
X15575000Y-15021500D02*
G75*
G03X15575000Y-14991500I0J15000D01*
G01*
X15830000Y-15222500D02*
G75*
G03X15830000Y-15222500I-25000J0D01*
G01*
X15840000Y-15207500D02*
X15770000Y-15207500D01*
X15840000Y-15237500D02*
X15770000Y-15237500D01*
X15770000Y-15207500D02*
G75*
G03X15770000Y-15237500I0J-15000D01*
G01*
X15840000Y-15237500D02*
G75*
G03X15840000Y-15207500I0J15000D01*
G01*
X14251000Y-14412500D02*
X14251000Y-14477500D01*
X14218500Y-14445000D02*
X14283500Y-14445000D01*
X14339000Y-15001500D02*
X14339000Y-15066500D01*
X14306500Y-15034000D02*
X14371500Y-15034000D01*
X14378000Y-14412500D02*
X14378000Y-14477500D01*
X14345500Y-14445000D02*
X14410500Y-14445000D01*
X14466000Y-15001500D02*
X14466000Y-15066500D01*
X14433500Y-15034000D02*
X14498500Y-15034000D01*
X14505000Y-14412500D02*
X14505000Y-14477500D01*
X14472500Y-14445000D02*
X14537500Y-14445000D01*
X14593000Y-15001500D02*
X14593000Y-15066500D01*
X14560500Y-15034000D02*
X14625500Y-15034000D01*
X14632000Y-14412500D02*
X14632000Y-14477500D01*
X14599500Y-14445000D02*
X14664500Y-14445000D01*
X14660771Y-12136423D02*
X14660771Y-12201423D01*
X14628271Y-12168923D02*
X14693271Y-12168923D01*
X14720000Y-15001500D02*
X14720000Y-15066500D01*
X14687500Y-15034000D02*
X14752500Y-15034000D01*
X14759000Y-14412500D02*
X14759000Y-14477500D01*
X14726500Y-14445000D02*
X14791500Y-14445000D01*
X14787771Y-12136423D02*
X14787771Y-12201423D01*
X14755271Y-12168923D02*
X14820271Y-12168923D01*
X14847000Y-15001500D02*
X14847000Y-15066500D01*
X14814500Y-15034000D02*
X14879500Y-15034000D01*
X14886000Y-14412500D02*
X14886000Y-14477500D01*
X14853500Y-14445000D02*
X14918500Y-14445000D01*
X14914771Y-12136423D02*
X14914771Y-12201423D01*
X14882271Y-12168923D02*
X14947271Y-12168923D01*
X15013000Y-14412500D02*
X15013000Y-14477500D01*
X14980500Y-14445000D02*
X15045500Y-14445000D01*
X15140000Y-14412500D02*
X15140000Y-14477500D01*
X15107500Y-14445000D02*
X15172500Y-14445000D01*
X15270272Y-12389695D02*
X15270272Y-12454695D01*
X15237772Y-12422195D02*
X15302772Y-12422195D01*
X15794000Y-13052423D02*
X15794000Y-13117423D01*
X15761500Y-13084923D02*
X15826500Y-13084923D01*
X16283501Y-14093500D02*
X16283501Y-14158500D01*
X16251001Y-14126000D02*
X16316001Y-14126000D01*
X16354000Y-15196500D02*
X16354000Y-15261500D01*
X16321500Y-15229000D02*
X16386500Y-15229000D01*
X16481000Y-15196500D02*
X16481000Y-15261500D01*
X16448500Y-15229000D02*
X16513500Y-15229000D01*
X16705000Y-14296500D02*
X16705000Y-14361500D01*
X16672500Y-14329000D02*
X16737500Y-14329000D01*
X16906000Y-13549500D02*
X16906000Y-13614500D01*
X16873500Y-13582000D02*
X16938500Y-13582000D01*
X16985000Y-13818500D02*
X16985000Y-13883500D01*
X16952500Y-13851000D02*
X17017500Y-13851000D01*
X16985000Y-13945500D02*
X16985000Y-14010500D01*
X16952500Y-13978000D02*
X17017500Y-13978000D01*
X16985000Y-14072500D02*
X16985000Y-14137500D01*
X16952500Y-14105000D02*
X17017500Y-14105000D01*
X16986000Y-12837500D02*
X16986000Y-12902500D01*
X16953500Y-12870000D02*
X17018500Y-12870000D01*
X17033000Y-13549500D02*
X17033000Y-13614500D01*
X17000500Y-13582000D02*
X17065500Y-13582000D01*
D13*
X14263928Y-16273214D02*
X14263928Y-15973214D01*
X14335357Y-15973214D01*
X14378214Y-15987500D01*
X14406786Y-16016071D01*
X14421071Y-16044643D01*
X14435357Y-16101786D01*
X14435357Y-16144643D01*
X14421071Y-16201786D01*
X14406786Y-16230357D01*
X14378214Y-16258929D01*
X14335357Y-16273214D01*
X14263928Y-16273214D01*
X14563928Y-16273214D02*
X14563928Y-16073214D01*
X14563928Y-16130357D02*
X14578214Y-16101786D01*
X14592500Y-16087500D01*
X14621071Y-16073214D01*
X14649643Y-16073214D01*
X14749643Y-16273214D02*
X14749643Y-16073214D01*
X14749643Y-15973214D02*
X14735357Y-15987500D01*
X14749643Y-16001786D01*
X14763928Y-15987500D01*
X14749643Y-15973214D01*
X14749643Y-16001786D01*
X14935357Y-16273214D02*
X14906786Y-16258929D01*
X14892500Y-16230357D01*
X14892500Y-15973214D01*
X15092500Y-16273214D02*
X15063928Y-16258929D01*
X15049643Y-16230357D01*
X15049643Y-15973214D01*
X15435357Y-16273214D02*
X15435357Y-15973214D01*
X15535357Y-16187500D01*
X15635357Y-15973214D01*
X15635357Y-16273214D01*
X15906786Y-16273214D02*
X15906786Y-16116071D01*
X15892500Y-16087500D01*
X15863928Y-16073214D01*
X15806786Y-16073214D01*
X15778214Y-16087500D01*
X15906786Y-16258929D02*
X15878214Y-16273214D01*
X15806786Y-16273214D01*
X15778214Y-16258929D01*
X15763928Y-16230357D01*
X15763928Y-16201786D01*
X15778214Y-16173214D01*
X15806786Y-16158929D01*
X15878214Y-16158929D01*
X15906786Y-16144643D01*
X16049643Y-16073214D02*
X16049643Y-16373214D01*
X16049643Y-16087500D02*
X16078214Y-16073214D01*
X16135357Y-16073214D01*
X16163928Y-16087500D01*
X16178214Y-16101786D01*
X16192500Y-16130357D01*
X16192500Y-16216071D01*
X16178214Y-16244643D01*
X16163928Y-16258929D01*
X16135357Y-16273214D01*
X16078214Y-16273214D01*
X16049643Y-16258929D01*
X16321071Y-16244643D02*
X16335357Y-16258929D01*
X16321071Y-16273214D01*
X16306786Y-16258929D01*
X16321071Y-16244643D01*
X16321071Y-16273214D01*
X16321071Y-16087500D02*
X16335357Y-16101786D01*
X16321071Y-16116071D01*
X16306786Y-16101786D01*
X16321071Y-16087500D01*
X16321071Y-16116071D01*
X13952500Y-16747500D02*
X13992500Y-16787500D01*
X13992500Y-16747500D02*
X13952500Y-16787500D01*
X14321071Y-16603214D02*
X14349643Y-16603214D01*
X14378214Y-16617500D01*
X14392500Y-16631786D01*
X14406786Y-16660357D01*
X14421071Y-16717500D01*
X14421071Y-16788929D01*
X14406786Y-16846072D01*
X14392500Y-16874643D01*
X14378214Y-16888929D01*
X14349643Y-16903214D01*
X14321071Y-16903214D01*
X14292500Y-16888929D01*
X14278214Y-16874643D01*
X14263928Y-16846072D01*
X14249643Y-16788929D01*
X14249643Y-16717500D01*
X14263928Y-16660357D01*
X14278214Y-16631786D01*
X14292500Y-16617500D01*
X14321071Y-16603214D01*
X14549643Y-16874643D02*
X14563928Y-16888929D01*
X14549643Y-16903214D01*
X14535357Y-16888929D01*
X14549643Y-16874643D01*
X14549643Y-16903214D01*
X14821071Y-16703214D02*
X14821071Y-16903214D01*
X14749643Y-16588929D02*
X14678214Y-16803214D01*
X14863928Y-16803214D01*
X15035357Y-16603214D02*
X15063928Y-16603214D01*
X15092500Y-16617500D01*
X15106786Y-16631786D01*
X15121071Y-16660357D01*
X15135357Y-16717500D01*
X15135357Y-16788929D01*
X15121071Y-16846072D01*
X15106786Y-16874643D01*
X15092500Y-16888929D01*
X15063928Y-16903214D01*
X15035357Y-16903214D01*
X15006786Y-16888929D01*
X14992500Y-16874643D01*
X14978214Y-16846072D01*
X14963928Y-16788929D01*
X14963928Y-16717500D01*
X14978214Y-16660357D01*
X14992500Y-16631786D01*
X15006786Y-16617500D01*
X15035357Y-16603214D01*
X15263928Y-16903214D02*
X15263928Y-16703214D01*
X15263928Y-16731786D02*
X15278214Y-16717500D01*
X15306786Y-16703214D01*
X15349643Y-16703214D01*
X15378214Y-16717500D01*
X15392500Y-16746071D01*
X15392500Y-16903214D01*
X15392500Y-16746071D02*
X15406786Y-16717500D01*
X15435357Y-16703214D01*
X15478214Y-16703214D01*
X15506786Y-16717500D01*
X15521071Y-16746071D01*
X15521071Y-16903214D01*
X15663928Y-16903214D02*
X15663928Y-16703214D01*
X15663928Y-16731786D02*
X15678214Y-16717500D01*
X15706786Y-16703214D01*
X15749643Y-16703214D01*
X15778214Y-16717500D01*
X15792500Y-16746071D01*
X15792500Y-16903214D01*
X15792500Y-16746071D02*
X15806786Y-16717500D01*
X15835357Y-16703214D01*
X15878214Y-16703214D01*
X15906786Y-16717500D01*
X15921071Y-16746071D01*
X15921071Y-16903214D01*
X16506786Y-16588929D02*
X16249643Y-16974643D01*
X16892500Y-16603214D02*
X16921071Y-16603214D01*
X16949643Y-16617500D01*
X16963928Y-16631786D01*
X16978214Y-16660357D01*
X16992500Y-16717500D01*
X16992500Y-16788929D01*
X16978214Y-16846072D01*
X16963928Y-16874643D01*
X16949643Y-16888929D01*
X16921071Y-16903214D01*
X16892500Y-16903214D01*
X16863928Y-16888929D01*
X16849643Y-16874643D01*
X16835357Y-16846072D01*
X16821071Y-16788929D01*
X16821071Y-16717500D01*
X16835357Y-16660357D01*
X16849643Y-16631786D01*
X16863928Y-16617500D01*
X16892500Y-16603214D01*
X17121071Y-16874643D02*
X17135357Y-16888929D01*
X17121071Y-16903214D01*
X17106786Y-16888929D01*
X17121071Y-16874643D01*
X17121071Y-16903214D01*
X17321071Y-16603214D02*
X17349643Y-16603214D01*
X17378214Y-16617500D01*
X17392500Y-16631786D01*
X17406786Y-16660357D01*
X17421071Y-16717500D01*
X17421071Y-16788929D01*
X17406786Y-16846072D01*
X17392500Y-16874643D01*
X17378214Y-16888929D01*
X17349643Y-16903214D01*
X17321071Y-16903214D01*
X17292500Y-16888929D01*
X17278214Y-16874643D01*
X17263928Y-16846072D01*
X17249643Y-16788929D01*
X17249643Y-16717500D01*
X17263928Y-16660357D01*
X17278214Y-16631786D01*
X17292500Y-16617500D01*
X17321071Y-16603214D01*
X17706786Y-16903214D02*
X17535357Y-16903214D01*
X17621071Y-16903214D02*
X17621071Y-16603214D01*
X17592500Y-16646071D01*
X17563928Y-16674643D01*
X17535357Y-16688929D01*
X17963928Y-16603214D02*
X17906786Y-16603214D01*
X17878214Y-16617500D01*
X17863928Y-16631786D01*
X17835357Y-16674643D01*
X17821071Y-16731786D01*
X17821071Y-16846072D01*
X17835357Y-16874643D01*
X17849643Y-16888929D01*
X17878214Y-16903214D01*
X17935357Y-16903214D01*
X17963928Y-16888929D01*
X17978214Y-16874643D01*
X17992500Y-16846072D01*
X17992500Y-16774643D01*
X17978214Y-16746071D01*
X17963928Y-16731786D01*
X17935357Y-16717500D01*
X17878214Y-16717500D01*
X17849643Y-16731786D01*
X17835357Y-16746071D01*
X17821071Y-16774643D01*
X18106786Y-16603214D02*
X18106786Y-16660357D01*
X18221071Y-16603214D02*
X18221071Y-16660357D01*
X18663928Y-17017500D02*
X18649643Y-17003214D01*
X18621071Y-16960357D01*
X18606786Y-16931786D01*
X18592500Y-16888929D01*
X18578214Y-16817500D01*
X18578214Y-16760357D01*
X18592500Y-16688929D01*
X18606786Y-16646071D01*
X18621071Y-16617500D01*
X18649643Y-16574643D01*
X18663928Y-16560357D01*
X18749643Y-16603214D02*
X18935357Y-16603214D01*
X18835357Y-16717500D01*
X18878214Y-16717500D01*
X18906786Y-16731786D01*
X18921071Y-16746071D01*
X18935357Y-16774643D01*
X18935357Y-16846072D01*
X18921071Y-16874643D01*
X18906786Y-16888929D01*
X18878214Y-16903214D01*
X18792500Y-16903214D01*
X18763928Y-16888929D01*
X18749643Y-16874643D01*
X19292500Y-16903214D02*
X19292500Y-16603214D01*
X19421071Y-16903214D02*
X19421071Y-16746071D01*
X19406786Y-16717500D01*
X19378214Y-16703214D01*
X19335357Y-16703214D01*
X19306786Y-16717500D01*
X19292500Y-16731786D01*
X19606786Y-16903214D02*
X19578214Y-16888929D01*
X19563928Y-16874643D01*
X19549643Y-16846072D01*
X19549643Y-16760357D01*
X19563928Y-16731786D01*
X19578214Y-16717500D01*
X19606786Y-16703214D01*
X19649643Y-16703214D01*
X19678214Y-16717500D01*
X19692500Y-16731786D01*
X19706786Y-16760357D01*
X19706786Y-16846072D01*
X19692500Y-16874643D01*
X19678214Y-16888929D01*
X19649643Y-16903214D01*
X19606786Y-16903214D01*
X19878214Y-16903214D02*
X19849643Y-16888929D01*
X19835357Y-16860357D01*
X19835357Y-16603214D01*
X20106786Y-16888929D02*
X20078214Y-16903214D01*
X20021071Y-16903214D01*
X19992500Y-16888929D01*
X19978214Y-16860357D01*
X19978214Y-16746071D01*
X19992500Y-16717500D01*
X20021071Y-16703214D01*
X20078214Y-16703214D01*
X20106786Y-16717500D01*
X20121071Y-16746071D01*
X20121071Y-16774643D01*
X19978214Y-16803214D01*
X20235357Y-16888929D02*
X20263929Y-16903214D01*
X20321071Y-16903214D01*
X20349643Y-16888929D01*
X20363929Y-16860357D01*
X20363929Y-16846072D01*
X20349643Y-16817500D01*
X20321071Y-16803214D01*
X20278214Y-16803214D01*
X20249643Y-16788929D01*
X20235357Y-16760357D01*
X20235357Y-16746071D01*
X20249643Y-16717500D01*
X20278214Y-16703214D01*
X20321071Y-16703214D01*
X20349643Y-16717500D01*
X20463928Y-17017500D02*
X20478214Y-17003214D01*
X20506786Y-16960357D01*
X20521071Y-16931786D01*
X20535357Y-16888929D01*
X20549643Y-16817500D01*
X20549643Y-16760357D01*
X20535357Y-16688929D01*
X20521071Y-16646071D01*
X20506786Y-16617500D01*
X20478214Y-16574643D01*
X20463928Y-16560357D01*
X13992500Y-17163500D02*
G75*
G03X13992500Y-17163500I-25000J0D01*
G01*
X14321071Y-16999214D02*
X14349643Y-16999214D01*
X14378214Y-17013500D01*
X14392500Y-17027786D01*
X14406786Y-17056357D01*
X14421071Y-17113500D01*
X14421071Y-17184929D01*
X14406786Y-17242072D01*
X14392500Y-17270643D01*
X14378214Y-17284929D01*
X14349643Y-17299214D01*
X14321071Y-17299214D01*
X14292500Y-17284929D01*
X14278214Y-17270643D01*
X14263928Y-17242072D01*
X14249643Y-17184929D01*
X14249643Y-17113500D01*
X14263928Y-17056357D01*
X14278214Y-17027786D01*
X14292500Y-17013500D01*
X14321071Y-16999214D01*
X14549643Y-17270643D02*
X14563928Y-17284929D01*
X14549643Y-17299214D01*
X14535357Y-17284929D01*
X14549643Y-17270643D01*
X14549643Y-17299214D01*
X14835357Y-16999214D02*
X14692500Y-16999214D01*
X14678214Y-17142072D01*
X14692500Y-17127786D01*
X14721071Y-17113500D01*
X14792500Y-17113500D01*
X14821071Y-17127786D01*
X14835357Y-17142072D01*
X14849643Y-17170643D01*
X14849643Y-17242072D01*
X14835357Y-17270643D01*
X14821071Y-17284929D01*
X14792500Y-17299214D01*
X14721071Y-17299214D01*
X14692500Y-17284929D01*
X14678214Y-17270643D01*
X15035357Y-16999214D02*
X15063928Y-16999214D01*
X15092500Y-17013500D01*
X15106786Y-17027786D01*
X15121071Y-17056357D01*
X15135357Y-17113500D01*
X15135357Y-17184929D01*
X15121071Y-17242072D01*
X15106786Y-17270643D01*
X15092500Y-17284929D01*
X15063928Y-17299214D01*
X15035357Y-17299214D01*
X15006786Y-17284929D01*
X14992500Y-17270643D01*
X14978214Y-17242072D01*
X14963928Y-17184929D01*
X14963928Y-17113500D01*
X14978214Y-17056357D01*
X14992500Y-17027786D01*
X15006786Y-17013500D01*
X15035357Y-16999214D01*
X15263928Y-17299214D02*
X15263928Y-17099214D01*
X15263928Y-17127786D02*
X15278214Y-17113500D01*
X15306786Y-17099214D01*
X15349643Y-17099214D01*
X15378214Y-17113500D01*
X15392500Y-17142072D01*
X15392500Y-17299214D01*
X15392500Y-17142072D02*
X15406786Y-17113500D01*
X15435357Y-17099214D01*
X15478214Y-17099214D01*
X15506786Y-17113500D01*
X15521071Y-17142072D01*
X15521071Y-17299214D01*
X15663928Y-17299214D02*
X15663928Y-17099214D01*
X15663928Y-17127786D02*
X15678214Y-17113500D01*
X15706786Y-17099214D01*
X15749643Y-17099214D01*
X15778214Y-17113500D01*
X15792500Y-17142072D01*
X15792500Y-17299214D01*
X15792500Y-17142072D02*
X15806786Y-17113500D01*
X15835357Y-17099214D01*
X15878214Y-17099214D01*
X15906786Y-17113500D01*
X15921071Y-17142072D01*
X15921071Y-17299214D01*
X16506786Y-16984929D02*
X16249643Y-17370643D01*
X16892500Y-16999214D02*
X16921071Y-16999214D01*
X16949643Y-17013500D01*
X16963928Y-17027786D01*
X16978214Y-17056357D01*
X16992500Y-17113500D01*
X16992500Y-17184929D01*
X16978214Y-17242072D01*
X16963928Y-17270643D01*
X16949643Y-17284929D01*
X16921071Y-17299214D01*
X16892500Y-17299214D01*
X16863928Y-17284929D01*
X16849643Y-17270643D01*
X16835357Y-17242072D01*
X16821071Y-17184929D01*
X16821071Y-17113500D01*
X16835357Y-17056357D01*
X16849643Y-17027786D01*
X16863928Y-17013500D01*
X16892500Y-16999214D01*
X17121071Y-17270643D02*
X17135357Y-17284929D01*
X17121071Y-17299214D01*
X17106786Y-17284929D01*
X17121071Y-17270643D01*
X17121071Y-17299214D01*
X17321071Y-16999214D02*
X17349643Y-16999214D01*
X17378214Y-17013500D01*
X17392500Y-17027786D01*
X17406786Y-17056357D01*
X17421071Y-17113500D01*
X17421071Y-17184929D01*
X17406786Y-17242072D01*
X17392500Y-17270643D01*
X17378214Y-17284929D01*
X17349643Y-17299214D01*
X17321071Y-17299214D01*
X17292500Y-17284929D01*
X17278214Y-17270643D01*
X17263928Y-17242072D01*
X17249643Y-17184929D01*
X17249643Y-17113500D01*
X17263928Y-17056357D01*
X17278214Y-17027786D01*
X17292500Y-17013500D01*
X17321071Y-16999214D01*
X17535357Y-17027786D02*
X17549643Y-17013500D01*
X17578214Y-16999214D01*
X17649643Y-16999214D01*
X17678214Y-17013500D01*
X17692500Y-17027786D01*
X17706786Y-17056357D01*
X17706786Y-17084929D01*
X17692500Y-17127786D01*
X17521071Y-17299214D01*
X17706786Y-17299214D01*
X17892500Y-16999214D02*
X17921071Y-16999214D01*
X17949643Y-17013500D01*
X17963928Y-17027786D01*
X17978214Y-17056357D01*
X17992500Y-17113500D01*
X17992500Y-17184929D01*
X17978214Y-17242072D01*
X17963928Y-17270643D01*
X17949643Y-17284929D01*
X17921071Y-17299214D01*
X17892500Y-17299214D01*
X17863928Y-17284929D01*
X17849643Y-17270643D01*
X17835357Y-17242072D01*
X17821071Y-17184929D01*
X17821071Y-17113500D01*
X17835357Y-17056357D01*
X17849643Y-17027786D01*
X17863928Y-17013500D01*
X17892500Y-16999214D01*
X18106786Y-16999214D02*
X18106786Y-17056357D01*
X18221071Y-16999214D02*
X18221071Y-17056357D01*
X18663928Y-17413500D02*
X18649643Y-17399214D01*
X18621071Y-17356357D01*
X18606786Y-17327786D01*
X18592500Y-17284929D01*
X18578214Y-17213500D01*
X18578214Y-17156357D01*
X18592500Y-17084929D01*
X18606786Y-17042072D01*
X18621071Y-17013500D01*
X18649643Y-16970643D01*
X18663928Y-16956357D01*
X18835357Y-16999214D02*
X18863928Y-16999214D01*
X18892500Y-17013500D01*
X18906786Y-17027786D01*
X18921071Y-17056357D01*
X18935357Y-17113500D01*
X18935357Y-17184929D01*
X18921071Y-17242072D01*
X18906786Y-17270643D01*
X18892500Y-17284929D01*
X18863928Y-17299214D01*
X18835357Y-17299214D01*
X18806786Y-17284929D01*
X18792500Y-17270643D01*
X18778214Y-17242072D01*
X18763928Y-17184929D01*
X18763928Y-17113500D01*
X18778214Y-17056357D01*
X18792500Y-17027786D01*
X18806786Y-17013500D01*
X18835357Y-16999214D01*
X19292500Y-17299214D02*
X19292500Y-16999214D01*
X19421071Y-17299214D02*
X19421071Y-17142072D01*
X19406786Y-17113500D01*
X19378214Y-17099214D01*
X19335357Y-17099214D01*
X19306786Y-17113500D01*
X19292500Y-17127786D01*
X19606786Y-17299214D02*
X19578214Y-17284929D01*
X19563928Y-17270643D01*
X19549643Y-17242072D01*
X19549643Y-17156357D01*
X19563928Y-17127786D01*
X19578214Y-17113500D01*
X19606786Y-17099214D01*
X19649643Y-17099214D01*
X19678214Y-17113500D01*
X19692500Y-17127786D01*
X19706786Y-17156357D01*
X19706786Y-17242072D01*
X19692500Y-17270643D01*
X19678214Y-17284929D01*
X19649643Y-17299214D01*
X19606786Y-17299214D01*
X19878214Y-17299214D02*
X19849643Y-17284929D01*
X19835357Y-17256357D01*
X19835357Y-16999214D01*
X20106786Y-17284929D02*
X20078214Y-17299214D01*
X20021071Y-17299214D01*
X19992500Y-17284929D01*
X19978214Y-17256357D01*
X19978214Y-17142072D01*
X19992500Y-17113500D01*
X20021071Y-17099214D01*
X20078214Y-17099214D01*
X20106786Y-17113500D01*
X20121071Y-17142072D01*
X20121071Y-17170643D01*
X19978214Y-17199214D01*
X20235357Y-17284929D02*
X20263929Y-17299214D01*
X20321071Y-17299214D01*
X20349643Y-17284929D01*
X20363929Y-17256357D01*
X20363929Y-17242072D01*
X20349643Y-17213500D01*
X20321071Y-17199214D01*
X20278214Y-17199214D01*
X20249643Y-17184929D01*
X20235357Y-17156357D01*
X20235357Y-17142072D01*
X20249643Y-17113500D01*
X20278214Y-17099214D01*
X20321071Y-17099214D01*
X20349643Y-17113500D01*
X20721071Y-17184929D02*
X20949643Y-17184929D01*
X20835357Y-17299214D02*
X20835357Y-17070643D01*
X21292500Y-16999214D02*
X21478214Y-16999214D01*
X21378214Y-17113500D01*
X21421071Y-17113500D01*
X21449643Y-17127786D01*
X21463928Y-17142072D01*
X21478214Y-17170643D01*
X21478214Y-17242072D01*
X21463928Y-17270643D01*
X21449643Y-17284929D01*
X21421071Y-17299214D01*
X21335357Y-17299214D01*
X21306786Y-17284929D01*
X21292500Y-17270643D01*
X21821071Y-17284929D02*
X21849643Y-17299214D01*
X21906786Y-17299214D01*
X21935357Y-17284929D01*
X21949643Y-17256357D01*
X21949643Y-17242072D01*
X21935357Y-17213500D01*
X21906786Y-17199214D01*
X21863928Y-17199214D01*
X21835357Y-17184929D01*
X21821071Y-17156357D01*
X21821071Y-17142072D01*
X21835357Y-17113500D01*
X21863928Y-17099214D01*
X21906786Y-17099214D01*
X21935357Y-17113500D01*
X22121071Y-17299214D02*
X22092500Y-17284929D01*
X22078214Y-17256357D01*
X22078214Y-16999214D01*
X22278214Y-17299214D02*
X22249643Y-17284929D01*
X22235357Y-17270643D01*
X22221071Y-17242072D01*
X22221071Y-17156357D01*
X22235357Y-17127786D01*
X22249643Y-17113500D01*
X22278214Y-17099214D01*
X22321071Y-17099214D01*
X22349643Y-17113500D01*
X22363928Y-17127786D01*
X22378214Y-17156357D01*
X22378214Y-17242072D01*
X22363928Y-17270643D01*
X22349643Y-17284929D01*
X22321071Y-17299214D01*
X22278214Y-17299214D01*
X22463928Y-17099214D02*
X22578214Y-17099214D01*
X22506786Y-16999214D02*
X22506786Y-17256357D01*
X22521071Y-17284929D01*
X22549643Y-17299214D01*
X22578214Y-17299214D01*
X22663928Y-17284929D02*
X22692500Y-17299214D01*
X22749643Y-17299214D01*
X22778214Y-17284929D01*
X22792500Y-17256357D01*
X22792500Y-17242072D01*
X22778214Y-17213500D01*
X22749643Y-17199214D01*
X22706786Y-17199214D01*
X22678214Y-17184929D01*
X22663928Y-17156357D01*
X22663928Y-17142072D01*
X22678214Y-17113500D01*
X22706786Y-17099214D01*
X22749643Y-17099214D01*
X22778214Y-17113500D01*
X22892500Y-17413500D02*
X22906786Y-17399214D01*
X22935357Y-17356357D01*
X22949643Y-17327786D01*
X22963928Y-17284929D01*
X22978214Y-17213500D01*
X22978214Y-17156357D01*
X22963928Y-17084929D01*
X22949643Y-17042072D01*
X22935357Y-17013500D01*
X22906786Y-16970643D01*
X22892500Y-16956357D01*
X13960000Y-17527000D02*
X13960000Y-17592000D01*
X13927500Y-17559500D02*
X13992500Y-17559500D01*
X14321071Y-17395214D02*
X14349643Y-17395214D01*
X14378214Y-17409500D01*
X14392500Y-17423786D01*
X14406786Y-17452357D01*
X14421071Y-17509500D01*
X14421071Y-17580929D01*
X14406786Y-17638072D01*
X14392500Y-17666643D01*
X14378214Y-17680929D01*
X14349643Y-17695214D01*
X14321071Y-17695214D01*
X14292500Y-17680929D01*
X14278214Y-17666643D01*
X14263928Y-17638072D01*
X14249643Y-17580929D01*
X14249643Y-17509500D01*
X14263928Y-17452357D01*
X14278214Y-17423786D01*
X14292500Y-17409500D01*
X14321071Y-17395214D01*
X14549643Y-17666643D02*
X14563928Y-17680929D01*
X14549643Y-17695214D01*
X14535357Y-17680929D01*
X14549643Y-17666643D01*
X14549643Y-17695214D01*
X14821071Y-17395214D02*
X14763928Y-17395214D01*
X14735357Y-17409500D01*
X14721071Y-17423786D01*
X14692500Y-17466643D01*
X14678214Y-17523786D01*
X14678214Y-17638072D01*
X14692500Y-17666643D01*
X14706786Y-17680929D01*
X14735357Y-17695214D01*
X14792500Y-17695214D01*
X14821071Y-17680929D01*
X14835357Y-17666643D01*
X14849643Y-17638072D01*
X14849643Y-17566643D01*
X14835357Y-17538072D01*
X14821071Y-17523786D01*
X14792500Y-17509500D01*
X14735357Y-17509500D01*
X14706786Y-17523786D01*
X14692500Y-17538072D01*
X14678214Y-17566643D01*
X15121071Y-17395214D02*
X14978214Y-17395214D01*
X14963928Y-17538072D01*
X14978214Y-17523786D01*
X15006786Y-17509500D01*
X15078214Y-17509500D01*
X15106786Y-17523786D01*
X15121071Y-17538072D01*
X15135357Y-17566643D01*
X15135357Y-17638072D01*
X15121071Y-17666643D01*
X15106786Y-17680929D01*
X15078214Y-17695214D01*
X15006786Y-17695214D01*
X14978214Y-17680929D01*
X14963928Y-17666643D01*
X15263928Y-17695214D02*
X15263928Y-17495214D01*
X15263928Y-17523786D02*
X15278214Y-17509500D01*
X15306786Y-17495214D01*
X15349643Y-17495214D01*
X15378214Y-17509500D01*
X15392500Y-17538072D01*
X15392500Y-17695214D01*
X15392500Y-17538072D02*
X15406786Y-17509500D01*
X15435357Y-17495214D01*
X15478214Y-17495214D01*
X15506786Y-17509500D01*
X15521071Y-17538072D01*
X15521071Y-17695214D01*
X15663928Y-17695214D02*
X15663928Y-17495214D01*
X15663928Y-17523786D02*
X15678214Y-17509500D01*
X15706786Y-17495214D01*
X15749643Y-17495214D01*
X15778214Y-17509500D01*
X15792500Y-17538072D01*
X15792500Y-17695214D01*
X15792500Y-17538072D02*
X15806786Y-17509500D01*
X15835357Y-17495214D01*
X15878214Y-17495214D01*
X15906786Y-17509500D01*
X15921071Y-17538072D01*
X15921071Y-17695214D01*
X16506786Y-17380929D02*
X16249643Y-17766643D01*
X16892500Y-17395214D02*
X16921071Y-17395214D01*
X16949643Y-17409500D01*
X16963928Y-17423786D01*
X16978214Y-17452357D01*
X16992500Y-17509500D01*
X16992500Y-17580929D01*
X16978214Y-17638072D01*
X16963928Y-17666643D01*
X16949643Y-17680929D01*
X16921071Y-17695214D01*
X16892500Y-17695214D01*
X16863928Y-17680929D01*
X16849643Y-17666643D01*
X16835357Y-17638072D01*
X16821071Y-17580929D01*
X16821071Y-17509500D01*
X16835357Y-17452357D01*
X16849643Y-17423786D01*
X16863928Y-17409500D01*
X16892500Y-17395214D01*
X17121071Y-17666643D02*
X17135357Y-17680929D01*
X17121071Y-17695214D01*
X17106786Y-17680929D01*
X17121071Y-17666643D01*
X17121071Y-17695214D01*
X17321071Y-17395214D02*
X17349643Y-17395214D01*
X17378214Y-17409500D01*
X17392500Y-17423786D01*
X17406786Y-17452357D01*
X17421071Y-17509500D01*
X17421071Y-17580929D01*
X17406786Y-17638072D01*
X17392500Y-17666643D01*
X17378214Y-17680929D01*
X17349643Y-17695214D01*
X17321071Y-17695214D01*
X17292500Y-17680929D01*
X17278214Y-17666643D01*
X17263928Y-17638072D01*
X17249643Y-17580929D01*
X17249643Y-17509500D01*
X17263928Y-17452357D01*
X17278214Y-17423786D01*
X17292500Y-17409500D01*
X17321071Y-17395214D01*
X17535357Y-17423786D02*
X17549643Y-17409500D01*
X17578214Y-17395214D01*
X17649643Y-17395214D01*
X17678214Y-17409500D01*
X17692500Y-17423786D01*
X17706786Y-17452357D01*
X17706786Y-17480929D01*
X17692500Y-17523786D01*
X17521071Y-17695214D01*
X17706786Y-17695214D01*
X17963928Y-17395214D02*
X17906786Y-17395214D01*
X17878214Y-17409500D01*
X17863928Y-17423786D01*
X17835357Y-17466643D01*
X17821071Y-17523786D01*
X17821071Y-17638072D01*
X17835357Y-17666643D01*
X17849643Y-17680929D01*
X17878214Y-17695214D01*
X17935357Y-17695214D01*
X17963928Y-17680929D01*
X17978214Y-17666643D01*
X17992500Y-17638072D01*
X17992500Y-17566643D01*
X17978214Y-17538072D01*
X17963928Y-17523786D01*
X17935357Y-17509500D01*
X17878214Y-17509500D01*
X17849643Y-17523786D01*
X17835357Y-17538072D01*
X17821071Y-17566643D01*
X18106786Y-17395214D02*
X18106786Y-17452357D01*
X18221071Y-17395214D02*
X18221071Y-17452357D01*
X18663928Y-17809500D02*
X18649643Y-17795214D01*
X18621071Y-17752357D01*
X18606786Y-17723786D01*
X18592500Y-17680929D01*
X18578214Y-17609500D01*
X18578214Y-17552357D01*
X18592500Y-17480929D01*
X18606786Y-17438072D01*
X18621071Y-17409500D01*
X18649643Y-17366643D01*
X18663928Y-17352357D01*
X18763928Y-17423786D02*
X18778214Y-17409500D01*
X18806786Y-17395214D01*
X18878214Y-17395214D01*
X18906786Y-17409500D01*
X18921071Y-17423786D01*
X18935357Y-17452357D01*
X18935357Y-17480929D01*
X18921071Y-17523786D01*
X18749643Y-17695214D01*
X18935357Y-17695214D01*
X19106786Y-17523786D02*
X19078214Y-17509500D01*
X19063928Y-17495214D01*
X19049643Y-17466643D01*
X19049643Y-17452357D01*
X19063928Y-17423786D01*
X19078214Y-17409500D01*
X19106786Y-17395214D01*
X19163928Y-17395214D01*
X19192500Y-17409500D01*
X19206786Y-17423786D01*
X19221071Y-17452357D01*
X19221071Y-17466643D01*
X19206786Y-17495214D01*
X19192500Y-17509500D01*
X19163928Y-17523786D01*
X19106786Y-17523786D01*
X19078214Y-17538072D01*
X19063928Y-17552357D01*
X19049643Y-17580929D01*
X19049643Y-17638072D01*
X19063928Y-17666643D01*
X19078214Y-17680929D01*
X19106786Y-17695214D01*
X19163928Y-17695214D01*
X19192500Y-17680929D01*
X19206786Y-17666643D01*
X19221071Y-17638072D01*
X19221071Y-17580929D01*
X19206786Y-17552357D01*
X19192500Y-17538072D01*
X19163928Y-17523786D01*
X19578214Y-17695214D02*
X19578214Y-17395214D01*
X19706786Y-17695214D02*
X19706786Y-17538072D01*
X19692500Y-17509500D01*
X19663928Y-17495214D01*
X19621071Y-17495214D01*
X19592500Y-17509500D01*
X19578214Y-17523786D01*
X19892500Y-17695214D02*
X19863928Y-17680929D01*
X19849643Y-17666643D01*
X19835357Y-17638072D01*
X19835357Y-17552357D01*
X19849643Y-17523786D01*
X19863928Y-17509500D01*
X19892500Y-17495214D01*
X19935357Y-17495214D01*
X19963928Y-17509500D01*
X19978214Y-17523786D01*
X19992500Y-17552357D01*
X19992500Y-17638072D01*
X19978214Y-17666643D01*
X19963928Y-17680929D01*
X19935357Y-17695214D01*
X19892500Y-17695214D01*
X20163928Y-17695214D02*
X20135357Y-17680929D01*
X20121071Y-17652357D01*
X20121071Y-17395214D01*
X20392500Y-17680929D02*
X20363929Y-17695214D01*
X20306786Y-17695214D01*
X20278214Y-17680929D01*
X20263929Y-17652357D01*
X20263929Y-17538072D01*
X20278214Y-17509500D01*
X20306786Y-17495214D01*
X20363929Y-17495214D01*
X20392500Y-17509500D01*
X20406786Y-17538072D01*
X20406786Y-17566643D01*
X20263929Y-17595214D01*
X20521071Y-17680929D02*
X20549643Y-17695214D01*
X20606786Y-17695214D01*
X20635357Y-17680929D01*
X20649643Y-17652357D01*
X20649643Y-17638072D01*
X20635357Y-17609500D01*
X20606786Y-17595214D01*
X20563929Y-17595214D01*
X20535357Y-17580929D01*
X20521071Y-17552357D01*
X20521071Y-17538072D01*
X20535357Y-17509500D01*
X20563929Y-17495214D01*
X20606786Y-17495214D01*
X20635357Y-17509500D01*
X20749643Y-17809500D02*
X20763929Y-17795214D01*
X20792500Y-17752357D01*
X20806786Y-17723786D01*
X20821071Y-17680929D01*
X20835357Y-17609500D01*
X20835357Y-17552357D01*
X20821071Y-17480929D01*
X20806786Y-17438072D01*
X20792500Y-17409500D01*
X20763929Y-17366643D01*
X20749643Y-17352357D01*
M02*
