G04 #@! TF.FileFunction,Copper,L1,Top,Signal*
%FSLAX46Y46*%
G04 Gerber Fmt 4.6, Leading zero omitted, Abs format (unit mm)*
G04 Created by KiCad (PCBNEW 4.0.2-stable) date 24/04/2017 01:49:24 p.m.*
%MOMM*%
G01*
G04 APERTURE LIST*
%ADD10C,0.100000*%
%ADD11R,0.450000X1.500000*%
%ADD12O,1.800000X1.100000*%
%ADD13O,2.200000X1.100000*%
%ADD14R,1.000000X1.000000*%
%ADD15O,1.000000X1.000000*%
%ADD16R,1.450000X0.450000*%
%ADD17R,0.800000X0.750000*%
%ADD18R,1.000760X0.599440*%
%ADD19R,0.750000X0.800000*%
%ADD20R,0.900000X0.500000*%
%ADD21R,0.500000X0.900000*%
%ADD22R,0.450000X1.450000*%
%ADD23C,0.600000*%
%ADD24C,1.000000*%
%ADD25C,0.250000*%
%ADD26C,0.350000*%
%ADD27C,0.500000*%
%ADD28C,0.254000*%
G04 APERTURE END LIST*
D10*
D11*
X155250000Y-151975000D03*
X154600000Y-151975000D03*
X155900000Y-151975000D03*
X153950000Y-151975000D03*
X156550000Y-151975000D03*
D12*
X152450000Y-152225000D03*
X158050000Y-152225000D03*
D13*
X155200000Y-150065000D03*
D14*
X142510000Y-144450000D03*
D15*
X143780000Y-144450000D03*
X145050000Y-144450000D03*
X146320000Y-144450000D03*
X147590000Y-144450000D03*
X148860000Y-144450000D03*
X150130000Y-144450000D03*
X151400000Y-144450000D03*
D16*
X155210000Y-139980000D03*
X155210000Y-140630000D03*
X155210000Y-141280000D03*
X155210000Y-141930000D03*
X155210000Y-142580000D03*
X155210000Y-143230000D03*
X155210000Y-143880000D03*
X161110000Y-143880000D03*
X161110000Y-143230000D03*
X161110000Y-142580000D03*
X161110000Y-141930000D03*
X161110000Y-141280000D03*
X161110000Y-140630000D03*
X161110000Y-139980000D03*
D17*
X143907709Y-131469231D03*
X142407709Y-131469231D03*
D14*
X169850000Y-138510000D03*
D15*
X169850000Y-139780000D03*
X169850000Y-141050000D03*
D14*
X170330000Y-135820000D03*
D15*
X169060000Y-135820000D03*
D18*
X167036640Y-141832500D03*
X167036640Y-139927500D03*
X167036640Y-140880000D03*
X164923360Y-139927500D03*
X164923360Y-141832500D03*
X164923360Y-140880000D03*
X165066640Y-149802500D03*
X165066640Y-147897500D03*
X165066640Y-148850000D03*
X162953360Y-147897500D03*
X162953360Y-149802500D03*
D19*
X156677709Y-123199231D03*
X156677709Y-121699231D03*
X155897709Y-128159231D03*
X155897709Y-126659231D03*
X151217709Y-134989231D03*
X151217709Y-136489231D03*
D17*
X159727709Y-137119231D03*
X158227709Y-137119231D03*
D19*
X167330000Y-130480000D03*
X167330000Y-128980000D03*
X164710000Y-145710000D03*
X164710000Y-144210000D03*
D17*
X167560000Y-147140000D03*
X169060000Y-147140000D03*
X153730000Y-137860000D03*
X155230000Y-137860000D03*
X165680000Y-137770000D03*
X167180000Y-137770000D03*
X168350000Y-145030000D03*
X166850000Y-145030000D03*
X143150000Y-146850000D03*
X141650000Y-146850000D03*
D20*
X154217709Y-123219231D03*
X154217709Y-124719231D03*
D21*
X142477709Y-125399231D03*
X143977709Y-125399231D03*
D20*
X151827709Y-121699231D03*
X151827709Y-123199231D03*
X153387709Y-128159231D03*
X153387709Y-126659231D03*
X143927709Y-135109231D03*
X143927709Y-133609231D03*
X143927709Y-129289231D03*
X143927709Y-127789231D03*
D21*
X154347709Y-132539231D03*
X152847709Y-132539231D03*
X152847709Y-130199231D03*
X154347709Y-130199231D03*
X153227709Y-134969231D03*
X154727709Y-134969231D03*
D20*
X146347709Y-136459231D03*
X146347709Y-134959231D03*
X148677709Y-134989231D03*
X148677709Y-136489231D03*
X160577709Y-123379231D03*
X160577709Y-124879231D03*
D21*
X164047709Y-123619231D03*
X162547709Y-123619231D03*
D20*
X158157709Y-126369231D03*
X158157709Y-124869231D03*
X158147709Y-129649231D03*
X158147709Y-128149231D03*
D21*
X166017709Y-123609231D03*
X167517709Y-123609231D03*
D20*
X157467709Y-133749231D03*
X157467709Y-135249231D03*
X167317709Y-127039231D03*
X167317709Y-125539231D03*
D21*
X163587709Y-137059231D03*
X162087709Y-137059231D03*
D20*
X166870000Y-132250000D03*
X166870000Y-133750000D03*
D21*
X166970000Y-152550000D03*
X168470000Y-152550000D03*
D20*
X167720000Y-150720000D03*
X167720000Y-149220000D03*
D14*
X164810000Y-152290000D03*
D15*
X163540000Y-152290000D03*
D14*
X148470000Y-150340000D03*
D15*
X147200000Y-150340000D03*
X145930000Y-150340000D03*
X144660000Y-150340000D03*
X143390000Y-150340000D03*
D14*
X146607709Y-121689231D03*
D15*
X147877709Y-121689231D03*
X149147709Y-121689231D03*
D22*
X150467709Y-125779231D03*
X149817709Y-125779231D03*
X149167709Y-125779231D03*
X148517709Y-125779231D03*
X147867709Y-125779231D03*
X147217709Y-125779231D03*
X146567709Y-125779231D03*
X146567709Y-131679231D03*
X147217709Y-131679231D03*
X147867709Y-131679231D03*
X148517709Y-131679231D03*
X149167709Y-131679231D03*
X149817709Y-131679231D03*
X150467709Y-131679231D03*
X164437709Y-127299231D03*
X163787709Y-127299231D03*
X163137709Y-127299231D03*
X162487709Y-127299231D03*
X161837709Y-127299231D03*
X161187709Y-127299231D03*
X160537709Y-127299231D03*
X160537709Y-133199231D03*
X161187709Y-133199231D03*
X161837709Y-133199231D03*
X162487709Y-133199231D03*
X163137709Y-133199231D03*
X163787709Y-133199231D03*
X164437709Y-133199231D03*
D23*
X151325000Y-150325000D03*
X143925000Y-141125000D03*
X150300000Y-138550000D03*
D24*
X169860000Y-128700000D03*
X157940000Y-130849231D03*
X152702719Y-124221950D03*
X167050000Y-143290000D03*
X162835010Y-141260000D03*
D25*
X147217709Y-131679231D02*
X147217709Y-132654231D01*
X147217709Y-132654231D02*
X146262709Y-133609231D01*
X146262709Y-133609231D02*
X144627709Y-133609231D01*
X144627709Y-133609231D02*
X143927709Y-133609231D01*
X143907709Y-131469231D02*
X143907709Y-133589231D01*
X143907709Y-133589231D02*
X143927709Y-133609231D01*
X143927709Y-129289231D02*
X143927709Y-131449231D01*
X143927709Y-131449231D02*
X143907709Y-131469231D01*
X142407709Y-131469231D02*
X142407709Y-125469231D01*
X142407709Y-125469231D02*
X142477709Y-125399231D01*
X158624818Y-131724232D02*
X156284828Y-131724232D01*
X156284828Y-131724232D02*
X156264821Y-131704225D01*
X156264821Y-131704225D02*
X155850597Y-131704225D01*
X155850597Y-131704225D02*
X155015591Y-132539231D01*
X154847709Y-132539231D02*
X155015591Y-132539231D01*
X154347709Y-132539231D02*
X154847709Y-132539231D01*
X162512686Y-129774254D02*
X163137709Y-129149231D01*
X160574796Y-129774254D02*
X162512686Y-129774254D01*
X158624818Y-131724232D02*
X160574796Y-129774254D01*
X163137709Y-129149231D02*
X163137709Y-127299231D01*
X156677709Y-123199231D02*
X158772709Y-123199231D01*
X158772709Y-123199231D02*
X159827708Y-124254230D01*
X159827708Y-124254230D02*
X161327710Y-124254230D01*
X161327710Y-124254230D02*
X163087710Y-126014230D01*
X163087710Y-126014230D02*
X163087710Y-127249232D01*
X163087710Y-127249232D02*
X163137709Y-127299231D01*
X156677709Y-121699231D02*
X151827709Y-121699231D01*
X143927709Y-135109231D02*
X143727709Y-135109231D01*
X143727709Y-135109231D02*
X141632708Y-133014230D01*
X141632708Y-133014230D02*
X141632708Y-124869230D01*
X141632708Y-124869230D02*
X145687708Y-120814230D01*
X145687708Y-120814230D02*
X150242708Y-120814230D01*
X150242708Y-120814230D02*
X151127709Y-121699231D01*
X151127709Y-121699231D02*
X151827709Y-121699231D01*
X150467709Y-125779231D02*
X150467709Y-122859231D01*
X150467709Y-122859231D02*
X151627709Y-121699231D01*
X151627709Y-121699231D02*
X151827709Y-121699231D01*
X155897709Y-128159231D02*
X156522709Y-128159231D01*
X156522709Y-128159231D02*
X157137710Y-128774232D01*
X157137710Y-128774232D02*
X161337716Y-128774232D01*
X161337716Y-128774232D02*
X161837709Y-128274231D01*
X161837709Y-128274231D02*
X161837709Y-127299231D01*
X155897709Y-128159231D02*
X155272709Y-128159231D01*
X155272709Y-128159231D02*
X154347709Y-129084231D01*
X154347709Y-129084231D02*
X154347709Y-129499231D01*
X154347709Y-129499231D02*
X154347709Y-130199231D01*
X155897709Y-126659231D02*
X155897709Y-126684231D01*
X155897709Y-126684231D02*
X154422709Y-128159231D01*
X154422709Y-128159231D02*
X154087709Y-128159231D01*
X154087709Y-128159231D02*
X153387709Y-128159231D01*
X146567709Y-125779231D02*
X146567709Y-126811353D01*
X146567709Y-126811353D02*
X148135618Y-128379262D01*
X148135618Y-128379262D02*
X152467678Y-128379262D01*
X152467678Y-128379262D02*
X152687709Y-128159231D01*
X152687709Y-128159231D02*
X153387709Y-128159231D01*
X143927709Y-127789231D02*
X143927709Y-127289231D01*
X143927709Y-127289231D02*
X145437709Y-125779231D01*
X145437709Y-125779231D02*
X146092709Y-125779231D01*
X146092709Y-125779231D02*
X146567709Y-125779231D01*
X149167709Y-131679231D02*
X149167709Y-134499231D01*
X149167709Y-134499231D02*
X148677709Y-134989231D01*
X148677709Y-134989231D02*
X146377709Y-134989231D01*
X146377709Y-134989231D02*
X146347709Y-134959231D01*
X151217709Y-134989231D02*
X150592709Y-134989231D01*
X150592709Y-134989231D02*
X148677709Y-134989231D01*
D26*
X153950000Y-151975000D02*
X153950000Y-151450000D01*
X153950000Y-151450000D02*
X152825000Y-150325000D01*
X152825000Y-150325000D02*
X151325000Y-150325000D01*
D27*
X142312104Y-142747894D02*
X143675000Y-142747894D01*
X143675000Y-142747894D02*
X143925000Y-142497894D01*
X143780000Y-144450000D02*
X143780000Y-143742894D01*
X143780000Y-143742894D02*
X143925000Y-143597894D01*
X143925000Y-143597894D02*
X143925000Y-142497894D01*
X143925000Y-141125000D02*
X143925000Y-142497894D01*
X148677709Y-136489231D02*
X148677709Y-136927709D01*
X148677709Y-136927709D02*
X150300000Y-138550000D01*
X141650000Y-146850000D02*
X141650000Y-146600000D01*
X141650000Y-146600000D02*
X141509999Y-146459999D01*
X141509999Y-146459999D02*
X141509999Y-143549999D01*
X141509999Y-143549999D02*
X142312104Y-142747894D01*
D25*
X167330000Y-128980000D02*
X169580000Y-128980000D01*
X169580000Y-128980000D02*
X169860000Y-128700000D01*
X169860000Y-128700000D02*
X167610000Y-128700000D01*
X165798741Y-142471259D02*
X164710000Y-143560000D01*
X164710000Y-143560000D02*
X164710000Y-144210000D01*
X167036640Y-140880000D02*
X167787020Y-140880000D01*
X167787020Y-140880000D02*
X167912021Y-140754999D01*
X167912021Y-140754999D02*
X167912021Y-139127021D01*
X167912021Y-139127021D02*
X167180000Y-138395000D01*
X167180000Y-138395000D02*
X167180000Y-137770000D01*
X167180000Y-137770000D02*
X167205000Y-137770000D01*
X167205000Y-137770000D02*
X169060000Y-135915000D01*
X169060000Y-135915000D02*
X169060000Y-135820000D01*
X157940000Y-130849231D02*
X157397709Y-130849231D01*
X162487709Y-127299231D02*
X162487709Y-128331359D01*
X162487709Y-128331359D02*
X161544826Y-129274242D01*
X161544826Y-129274242D02*
X159897700Y-129274242D01*
X159897700Y-129274242D02*
X158322711Y-130849231D01*
X158322711Y-130849231D02*
X157940000Y-130849231D01*
X151199820Y-127379242D02*
X152702719Y-125876343D01*
X152702719Y-125876343D02*
X152702719Y-124221950D01*
X161110000Y-139980000D02*
X162085000Y-139980000D01*
X162085000Y-139980000D02*
X162835010Y-140730010D01*
X162835010Y-140730010D02*
X162835010Y-141260000D01*
X148677709Y-136489231D02*
X151217709Y-136489231D01*
X165066640Y-148850000D02*
X164316260Y-148850000D01*
X164316260Y-148850000D02*
X164191259Y-148724999D01*
X164191259Y-148724999D02*
X164191259Y-147297779D01*
X164191259Y-147297779D02*
X165004037Y-146485001D01*
X165004037Y-146485001D02*
X165369999Y-146485001D01*
X165369999Y-146485001D02*
X166825000Y-145030000D01*
X166825000Y-145030000D02*
X166850000Y-145030000D01*
X167720000Y-149220000D02*
X167020000Y-149220000D01*
X167020000Y-149220000D02*
X166650000Y-148850000D01*
X166650000Y-148850000D02*
X165817020Y-148850000D01*
X165817020Y-148850000D02*
X165066640Y-148850000D01*
X166850000Y-145030000D02*
X165530000Y-145030000D01*
X165530000Y-145030000D02*
X164710000Y-144210000D01*
X169060000Y-147140000D02*
X169060000Y-148080000D01*
X169060000Y-148080000D02*
X167920000Y-149220000D01*
X167920000Y-149220000D02*
X167720000Y-149220000D01*
X153730000Y-137090000D02*
X152443478Y-137090000D01*
X152443478Y-137090000D02*
X151842709Y-136489231D01*
X151842709Y-136489231D02*
X151217709Y-136489231D01*
X153730000Y-137860000D02*
X153730000Y-137090000D01*
X152327719Y-126251343D02*
X152327719Y-124584231D01*
X152327719Y-124584231D02*
X152702719Y-124209231D01*
X148517709Y-125779231D02*
X148517709Y-126754231D01*
X148517709Y-126754231D02*
X149142720Y-127379242D01*
X149142720Y-127379242D02*
X151199820Y-127379242D01*
X151199820Y-127379242D02*
X152327719Y-126251343D01*
X162087709Y-137059231D02*
X159787709Y-137059231D01*
X159787709Y-137059231D02*
X159727709Y-137119231D01*
X159727709Y-137119231D02*
X159727709Y-136351351D01*
X159727709Y-136351351D02*
X161187709Y-134891351D01*
X161187709Y-134891351D02*
X161187709Y-134174231D01*
X161187709Y-134174231D02*
X161187709Y-133199231D01*
X157467709Y-135249231D02*
X157467709Y-136359231D01*
X157467709Y-136359231D02*
X158227709Y-137119231D01*
X158252709Y-137119231D02*
X158227709Y-137119231D01*
X160537709Y-133199231D02*
X160537709Y-134834231D01*
X160537709Y-134834231D02*
X158252709Y-137119231D01*
X166870000Y-132250000D02*
X166870000Y-130940000D01*
X166870000Y-130940000D02*
X167330000Y-130480000D01*
X165800000Y-134860000D02*
X167135002Y-134860000D01*
X167135002Y-134860000D02*
X167955000Y-134040002D01*
X167955000Y-134040002D02*
X167955000Y-131130000D01*
X167955000Y-131130000D02*
X167330000Y-130505000D01*
X167330000Y-130505000D02*
X167330000Y-130480000D01*
X164450000Y-136210000D02*
X165800000Y-134860000D01*
X164450000Y-138075002D02*
X164450000Y-136210000D01*
X163745002Y-138780000D02*
X164450000Y-138075002D01*
X155210000Y-140630000D02*
X156185000Y-140630000D01*
X156185000Y-140630000D02*
X158035000Y-138780000D01*
X158035000Y-138780000D02*
X163745002Y-138780000D01*
D26*
X158700000Y-150525000D02*
X157475000Y-150525000D01*
X157475000Y-150525000D02*
X156550000Y-151450000D01*
X156550000Y-151450000D02*
X156550000Y-151975000D01*
X162953360Y-147897500D02*
X162953360Y-147466640D01*
X162953360Y-147466640D02*
X164710000Y-145710000D01*
X158700000Y-150525000D02*
X161775000Y-150525000D01*
X162953360Y-147897500D02*
X162752700Y-147897500D01*
X162752700Y-147897500D02*
X160125200Y-150525000D01*
X160125200Y-150525000D02*
X158700000Y-150525000D01*
X161775000Y-150525000D02*
X163540000Y-152290000D01*
X167036640Y-141832500D02*
X166488462Y-141832500D01*
X166488462Y-141832500D02*
X165675962Y-141020000D01*
X165675962Y-141020000D02*
X165063360Y-141020000D01*
X165063360Y-141020000D02*
X164923360Y-140880000D01*
D27*
X167036640Y-141832500D02*
X168350000Y-143145860D01*
X168350000Y-143145860D02*
X168350000Y-145030000D01*
X169850000Y-138510000D02*
X168850000Y-138510000D01*
X168850000Y-138510000D02*
X168537031Y-138822969D01*
X168537031Y-138822969D02*
X168537031Y-141332489D01*
X168537031Y-141332489D02*
X168037020Y-141832500D01*
X168037020Y-141832500D02*
X167036640Y-141832500D01*
D25*
X168350000Y-145030000D02*
X168375000Y-145030000D01*
D27*
X146347709Y-136459231D02*
X146347709Y-137209231D01*
X146347709Y-137209231D02*
X149043477Y-139904999D01*
X149043477Y-139904999D02*
X155210000Y-139904999D01*
X155210000Y-139904999D02*
X155210000Y-138755000D01*
X155210000Y-138755000D02*
X155230000Y-138735000D01*
X155230000Y-138735000D02*
X155230000Y-137860000D01*
X142575000Y-145400000D02*
X142575000Y-144515000D01*
X142575000Y-144515000D02*
X142510000Y-144450000D01*
X143150000Y-146850000D02*
X143150000Y-145975000D01*
X143150000Y-145975000D02*
X142575000Y-145400000D01*
D26*
X156349990Y-138229990D02*
X155980000Y-137860000D01*
X162762710Y-134549232D02*
X162762710Y-137849232D01*
X162487709Y-134274231D02*
X162762710Y-134549232D01*
X162487709Y-133199231D02*
X162487709Y-134274231D01*
X162762710Y-137849232D02*
X162381952Y-138229990D01*
X162381952Y-138229990D02*
X156349990Y-138229990D01*
X155980000Y-137860000D02*
X155230000Y-137860000D01*
D27*
X164923360Y-139927500D02*
X167036640Y-139927500D01*
X164923360Y-139927500D02*
X164923360Y-138526640D01*
X164923360Y-138526640D02*
X165680000Y-137770000D01*
X165680000Y-137770000D02*
X165680000Y-137198899D01*
X165680000Y-137198899D02*
X168298899Y-134580000D01*
X171030000Y-134580000D02*
X168298899Y-134580000D01*
X171350011Y-134900011D02*
X171030000Y-134580000D01*
X168905011Y-153714991D02*
X171350011Y-151269991D01*
X171350011Y-151269991D02*
X171350011Y-134900011D01*
X143390000Y-150340000D02*
X143390000Y-151047106D01*
X143390000Y-151047106D02*
X146057885Y-153714991D01*
X146057885Y-153714991D02*
X168905011Y-153714991D01*
X143390000Y-150340000D02*
X143390000Y-149632894D01*
X143390000Y-149632894D02*
X143149999Y-149392893D01*
X143149999Y-149392893D02*
X143149999Y-147725001D01*
X143149999Y-147725001D02*
X140849999Y-147725001D01*
X140849999Y-147725001D02*
X140749999Y-147625001D01*
X140749999Y-147625001D02*
X140749999Y-140879999D01*
X140749999Y-140879999D02*
X145170767Y-136459231D01*
X145170767Y-136459231D02*
X145397709Y-136459231D01*
X145397709Y-136459231D02*
X146347709Y-136459231D01*
D26*
X148517709Y-131679231D02*
X148517709Y-132754231D01*
X148517709Y-132754231D02*
X147112699Y-134159241D01*
X147112699Y-134159241D02*
X145682697Y-134159241D01*
X145682697Y-134159241D02*
X145090000Y-134751938D01*
X145090000Y-134751938D02*
X145090000Y-135401522D01*
X145090000Y-135401522D02*
X146147709Y-136459231D01*
X146147709Y-136459231D02*
X146347709Y-136459231D01*
D25*
X155230000Y-139960000D02*
X155210000Y-139980000D01*
D27*
X143150000Y-146850000D02*
X143149999Y-147725001D01*
D25*
X166970000Y-152550000D02*
X165070000Y-152550000D01*
X165070000Y-152550000D02*
X164810000Y-152290000D01*
X145050000Y-144450000D02*
X145050000Y-143742894D01*
X145050000Y-143742894D02*
X147512894Y-141280000D01*
X147512894Y-141280000D02*
X154235000Y-141280000D01*
X154235000Y-141280000D02*
X155210000Y-141280000D01*
X145050000Y-147750000D02*
X144660000Y-148140000D01*
X144660000Y-148140000D02*
X144660000Y-150340000D01*
X145050000Y-144450000D02*
X145050000Y-147750000D01*
X155210000Y-143880000D02*
X154235000Y-143880000D01*
X154235000Y-143880000D02*
X153330000Y-142975000D01*
X153330000Y-142975000D02*
X148200000Y-142975000D01*
X148200000Y-142975000D02*
X147590000Y-143585000D01*
X147590000Y-143585000D02*
X147590000Y-144450000D01*
X150130000Y-144450000D02*
X150629999Y-144949999D01*
X159350000Y-144014998D02*
X160135000Y-143230000D01*
X150629999Y-144949999D02*
X150629999Y-145895001D01*
X150629999Y-145895001D02*
X151009998Y-146275000D01*
X151009998Y-146275000D02*
X158525000Y-146275000D01*
X159350000Y-145450000D02*
X159350000Y-144014998D01*
X160135000Y-143230000D02*
X161110000Y-143230000D01*
X158525000Y-146275000D02*
X159350000Y-145450000D01*
X151400000Y-144450000D02*
X152675000Y-145725000D01*
X152675000Y-145725000D02*
X156932878Y-145725000D01*
X157700000Y-144957878D02*
X157700000Y-144094998D01*
X156932878Y-145725000D02*
X157700000Y-144957878D01*
X157700000Y-144094998D02*
X156185000Y-142580000D01*
X156185000Y-142580000D02*
X155210000Y-142580000D01*
X161110000Y-143880000D02*
X161110000Y-144397120D01*
X161110000Y-144397120D02*
X158732110Y-146775010D01*
X158732110Y-146775010D02*
X150477904Y-146775010D01*
X148860000Y-145157106D02*
X148860000Y-144450000D01*
X150477904Y-146775010D02*
X148860000Y-145157106D01*
X146320000Y-144450000D02*
X146320000Y-143742894D01*
X146320000Y-143742894D02*
X148132894Y-141930000D01*
X148132894Y-141930000D02*
X155210000Y-141930000D01*
X146320000Y-147605000D02*
X145930000Y-147995000D01*
X145930000Y-147995000D02*
X145930000Y-150340000D01*
X146320000Y-144450000D02*
X146320000Y-147605000D01*
X169850000Y-139780000D02*
X170557106Y-139780000D01*
X170557106Y-139780000D02*
X170725001Y-139612105D01*
X170725001Y-139612105D02*
X170725001Y-136965001D01*
X170725001Y-136965001D02*
X170330000Y-136570000D01*
X170330000Y-136570000D02*
X170330000Y-135820000D01*
X159650000Y-148110000D02*
X151450000Y-148110000D01*
X151450000Y-148110000D02*
X149220000Y-150340000D01*
X149220000Y-150340000D02*
X148470000Y-150340000D01*
X163210010Y-144549990D02*
X159650000Y-148110000D01*
X161110000Y-141930000D02*
X162142123Y-141930000D01*
X162142123Y-141930000D02*
X163210010Y-142997888D01*
X163210010Y-142997888D02*
X163210010Y-144549990D01*
X161110000Y-142580000D02*
X162085000Y-142580000D01*
X162085000Y-142580000D02*
X162710000Y-143204998D01*
X162710000Y-143204998D02*
X162710000Y-143905002D01*
X162710000Y-143905002D02*
X159215002Y-147400000D01*
X159215002Y-147400000D02*
X151452880Y-147400000D01*
X151452880Y-147400000D02*
X149727880Y-149125000D01*
X149727880Y-149125000D02*
X147707894Y-149125000D01*
X147707894Y-149125000D02*
X147200000Y-149632894D01*
X147200000Y-149632894D02*
X147200000Y-150340000D01*
X143977709Y-125399231D02*
X143977709Y-126099231D01*
X143977709Y-126099231D02*
X143102708Y-126974232D01*
X143102708Y-126974232D02*
X143102708Y-128339232D01*
X143102708Y-128339232D02*
X143427706Y-128664230D01*
X143427706Y-128664230D02*
X144677710Y-128664230D01*
X144677710Y-128664230D02*
X146567709Y-130554229D01*
X146567709Y-130554229D02*
X146567709Y-130704231D01*
X146567709Y-130704231D02*
X146567709Y-131679231D01*
X146607709Y-121689231D02*
X146607709Y-123269231D01*
X146607709Y-123269231D02*
X144477709Y-125399231D01*
X144477709Y-125399231D02*
X143977709Y-125399231D01*
X147877709Y-121689231D02*
X147877709Y-125769231D01*
X147877709Y-125769231D02*
X147867709Y-125779231D01*
X149147709Y-121689231D02*
X149147709Y-125759231D01*
X149147709Y-125759231D02*
X149167709Y-125779231D01*
X154217709Y-123219231D02*
X151847709Y-123219231D01*
X151847709Y-123219231D02*
X151827709Y-123199231D01*
X151827709Y-123199231D02*
X151827709Y-126044233D01*
X151827709Y-126044233D02*
X150992710Y-126879232D01*
X150992710Y-126879232D02*
X149942708Y-126879232D01*
X149942708Y-126879232D02*
X149817709Y-126754231D01*
X149817709Y-126754231D02*
X149817709Y-125779231D01*
X154217709Y-124719231D02*
X153517709Y-124719231D01*
X153517709Y-124719231D02*
X153387709Y-124849231D01*
X153387709Y-124849231D02*
X153387709Y-126159231D01*
X153387709Y-126159231D02*
X153387709Y-126659231D01*
X147217709Y-125779231D02*
X147217709Y-126754233D01*
X147217709Y-126754233D02*
X148342728Y-127879252D01*
X148342728Y-127879252D02*
X151967688Y-127879252D01*
X151967688Y-127879252D02*
X153187709Y-126659231D01*
X153187709Y-126659231D02*
X153387709Y-126659231D01*
X153227709Y-134969231D02*
X153227709Y-134269231D01*
X153227709Y-134269231D02*
X152847709Y-133889231D01*
X152847709Y-133889231D02*
X152847709Y-133239231D01*
X152847709Y-133239231D02*
X152847709Y-132539231D01*
X152847709Y-130199231D02*
X152847709Y-132539231D01*
X161837709Y-133199231D02*
X161837709Y-132224229D01*
X161837709Y-132224229D02*
X161712710Y-132099230D01*
X161712710Y-132099230D02*
X160012708Y-132099230D01*
X155572710Y-134624230D02*
X155227709Y-134969231D01*
X160012708Y-132099230D02*
X158962707Y-133149231D01*
X158962707Y-133149231D02*
X158962707Y-134054233D01*
X158962707Y-134054233D02*
X158392710Y-134624230D01*
X158392710Y-134624230D02*
X155572710Y-134624230D01*
X155227709Y-134969231D02*
X154727709Y-134969231D01*
X152787709Y-136099231D02*
X152197709Y-135509231D01*
X152197709Y-135509231D02*
X152197709Y-133909231D01*
X153797709Y-136099231D02*
X152787709Y-136099231D01*
X154727709Y-134969231D02*
X154727709Y-135169231D01*
X154727709Y-135169231D02*
X153797709Y-136099231D01*
X150467709Y-131679231D02*
X150467709Y-132179231D01*
X150467709Y-132179231D02*
X152197709Y-133909231D01*
X149817709Y-131679231D02*
X150467709Y-131679231D01*
X147867709Y-131679231D02*
X147867709Y-130704229D01*
X147867709Y-130704229D02*
X147992708Y-130579230D01*
X147992708Y-130579230D02*
X149692710Y-130579230D01*
X149692710Y-130579230D02*
X149817709Y-130704231D01*
X149817709Y-130704231D02*
X149817709Y-131679231D01*
X162547709Y-123619231D02*
X161517709Y-123619231D01*
X161517709Y-123619231D02*
X161277709Y-123379231D01*
X162547709Y-123619231D02*
X162547709Y-124767109D01*
X162547709Y-124767109D02*
X163737710Y-125957110D01*
X163737710Y-125957110D02*
X163737710Y-127249232D01*
X163737710Y-127249232D02*
X163787709Y-127299231D01*
X160577709Y-123379231D02*
X161277709Y-123379231D01*
X160577709Y-124879231D02*
X160577709Y-125379231D01*
X160577709Y-125379231D02*
X161187709Y-125989231D01*
X161187709Y-125989231D02*
X161187709Y-126324231D01*
X161187709Y-126324231D02*
X161187709Y-127299231D01*
X158157709Y-124869231D02*
X160567709Y-124869231D01*
X160567709Y-124869231D02*
X160577709Y-124879231D01*
X166017709Y-123609231D02*
X164057709Y-123609231D01*
X164057709Y-123609231D02*
X164047709Y-123619231D01*
X164047709Y-123619231D02*
X164047709Y-125559989D01*
X164047709Y-125559989D02*
X164437709Y-125949989D01*
X164437709Y-125949989D02*
X164437709Y-126324231D01*
X164437709Y-126324231D02*
X164437709Y-127299231D01*
X158157709Y-126369231D02*
X159607709Y-126369231D01*
X159607709Y-126369231D02*
X159652709Y-126324231D01*
X159652709Y-126324231D02*
X160062709Y-126324231D01*
X160062709Y-126324231D02*
X160537709Y-126799231D01*
X160537709Y-126799231D02*
X160537709Y-127299231D01*
X158157709Y-126369231D02*
X158157709Y-128139231D01*
X158157709Y-128139231D02*
X158147709Y-128149231D01*
X159180576Y-132224242D02*
X158492698Y-132224242D01*
X158492698Y-132224242D02*
X157467709Y-133249231D01*
X157467709Y-133249231D02*
X157467709Y-133749231D01*
X153722708Y-133289232D02*
X154182707Y-133749231D01*
X154182707Y-133749231D02*
X157467709Y-133749231D01*
X159180576Y-132224242D02*
X159805598Y-131599220D01*
X159805598Y-131599220D02*
X162512700Y-131599220D01*
X162512700Y-131599220D02*
X163137709Y-132224231D01*
X163137709Y-132224231D02*
X163137709Y-133199231D01*
X158147709Y-129649231D02*
X157447709Y-129649231D01*
X157447709Y-129649231D02*
X155947719Y-131149221D01*
X155947719Y-131149221D02*
X154330599Y-131149221D01*
X154330599Y-131149221D02*
X153722708Y-131757112D01*
X153722708Y-131757112D02*
X153722708Y-133289232D01*
X163787709Y-133199231D02*
X163787709Y-129662111D01*
X163787709Y-129662111D02*
X165037710Y-128412110D01*
X165037710Y-128412110D02*
X165037710Y-128399230D01*
X165037710Y-128399230D02*
X165767709Y-127669231D01*
X165767709Y-127669231D02*
X165767709Y-126889231D01*
X165767709Y-126889231D02*
X167117709Y-125539231D01*
X167117709Y-125539231D02*
X167317709Y-125539231D01*
X167517709Y-123609231D02*
X167517709Y-125339231D01*
X167517709Y-125339231D02*
X167317709Y-125539231D01*
X166870000Y-133750000D02*
X164988478Y-133750000D01*
X164988478Y-133750000D02*
X164437709Y-133199231D01*
X163587709Y-137059231D02*
X163587709Y-136359231D01*
X163587709Y-136359231D02*
X164437709Y-135509231D01*
X164437709Y-135509231D02*
X164437709Y-134174231D01*
X164437709Y-134174231D02*
X164437709Y-133199231D01*
X164437709Y-133199231D02*
X164437709Y-129719231D01*
X164437709Y-129719231D02*
X167117709Y-127039231D01*
X167117709Y-127039231D02*
X167317709Y-127039231D01*
X168470000Y-152550000D02*
X168470000Y-151850000D01*
X168470000Y-151850000D02*
X168545001Y-151774999D01*
X168545001Y-151774999D02*
X168545001Y-150169999D01*
X168545001Y-150169999D02*
X168220003Y-149845001D01*
X168220003Y-149845001D02*
X165859521Y-149845001D01*
X165859521Y-149845001D02*
X165817020Y-149802500D01*
X165817020Y-149802500D02*
X165066640Y-149802500D01*
X167720000Y-150720000D02*
X163321140Y-150720000D01*
X163321140Y-150720000D02*
X162953360Y-150352220D01*
X162953360Y-150352220D02*
X162953360Y-149802500D01*
D27*
X167560000Y-146890000D02*
X168390000Y-146060000D01*
X168390000Y-146060000D02*
X168980000Y-146060000D01*
X167560000Y-147140000D02*
X167560000Y-146890000D01*
X165066640Y-147897500D02*
X166802500Y-147897500D01*
X166802500Y-147897500D02*
X167560000Y-147140000D01*
X169250001Y-145789999D02*
X168980000Y-146060000D01*
X169850000Y-141050000D02*
X169250001Y-141649999D01*
X169250001Y-141649999D02*
X169250001Y-145789999D01*
D28*
G36*
X163687560Y-145310000D02*
X163687560Y-145586927D01*
X162380604Y-146893884D01*
X162327048Y-146974036D01*
X162217663Y-146994618D01*
X162001539Y-147133690D01*
X161856549Y-147345890D01*
X161805540Y-147597780D01*
X161805540Y-147699147D01*
X159789688Y-149715000D01*
X157475000Y-149715000D01*
X157165027Y-149776657D01*
X156941363Y-149926105D01*
X156878788Y-149611520D01*
X156621913Y-149227078D01*
X156237471Y-148970203D01*
X155783991Y-148880000D01*
X154616009Y-148880000D01*
X154162529Y-148970203D01*
X153778087Y-149227078D01*
X153521212Y-149611520D01*
X153431009Y-150065000D01*
X153521212Y-150518480D01*
X153575436Y-150599632D01*
X153365302Y-150686673D01*
X153186673Y-150865301D01*
X153092674Y-151092235D01*
X152830072Y-151040000D01*
X152069928Y-151040000D01*
X151616448Y-151130203D01*
X151232006Y-151387078D01*
X150975131Y-151771520D01*
X150884928Y-152225000D01*
X150975131Y-152678480D01*
X151076367Y-152829991D01*
X146424464Y-152829991D01*
X145020084Y-151425611D01*
X145094346Y-151410839D01*
X145295000Y-151276766D01*
X145495654Y-151410839D01*
X145930000Y-151497236D01*
X146364346Y-151410839D01*
X146565000Y-151276766D01*
X146765654Y-151410839D01*
X147200000Y-151497236D01*
X147634346Y-151410839D01*
X147657759Y-151395195D01*
X147718110Y-151436431D01*
X147970000Y-151487440D01*
X148970000Y-151487440D01*
X149205317Y-151443162D01*
X149421441Y-151304090D01*
X149566431Y-151091890D01*
X149586779Y-150991406D01*
X149757401Y-150877401D01*
X151764802Y-148870000D01*
X159650000Y-148870000D01*
X159940839Y-148812148D01*
X160187401Y-148647401D01*
X163728889Y-145105913D01*
X163687560Y-145310000D01*
X163687560Y-145310000D01*
G37*
X163687560Y-145310000D02*
X163687560Y-145586927D01*
X162380604Y-146893884D01*
X162327048Y-146974036D01*
X162217663Y-146994618D01*
X162001539Y-147133690D01*
X161856549Y-147345890D01*
X161805540Y-147597780D01*
X161805540Y-147699147D01*
X159789688Y-149715000D01*
X157475000Y-149715000D01*
X157165027Y-149776657D01*
X156941363Y-149926105D01*
X156878788Y-149611520D01*
X156621913Y-149227078D01*
X156237471Y-148970203D01*
X155783991Y-148880000D01*
X154616009Y-148880000D01*
X154162529Y-148970203D01*
X153778087Y-149227078D01*
X153521212Y-149611520D01*
X153431009Y-150065000D01*
X153521212Y-150518480D01*
X153575436Y-150599632D01*
X153365302Y-150686673D01*
X153186673Y-150865301D01*
X153092674Y-151092235D01*
X152830072Y-151040000D01*
X152069928Y-151040000D01*
X151616448Y-151130203D01*
X151232006Y-151387078D01*
X150975131Y-151771520D01*
X150884928Y-152225000D01*
X150975131Y-152678480D01*
X151076367Y-152829991D01*
X146424464Y-152829991D01*
X145020084Y-151425611D01*
X145094346Y-151410839D01*
X145295000Y-151276766D01*
X145495654Y-151410839D01*
X145930000Y-151497236D01*
X146364346Y-151410839D01*
X146565000Y-151276766D01*
X146765654Y-151410839D01*
X147200000Y-151497236D01*
X147634346Y-151410839D01*
X147657759Y-151395195D01*
X147718110Y-151436431D01*
X147970000Y-151487440D01*
X148970000Y-151487440D01*
X149205317Y-151443162D01*
X149421441Y-151304090D01*
X149566431Y-151091890D01*
X149586779Y-150991406D01*
X149757401Y-150877401D01*
X151764802Y-148870000D01*
X159650000Y-148870000D01*
X159940839Y-148812148D01*
X160187401Y-148647401D01*
X163728889Y-145105913D01*
X163687560Y-145310000D01*
G36*
X170465011Y-150903412D02*
X169351759Y-152016663D01*
X169323162Y-151864683D01*
X169295662Y-151821947D01*
X169305001Y-151774999D01*
X169305001Y-150169999D01*
X169247149Y-149879160D01*
X169082402Y-149632598D01*
X168757404Y-149307600D01*
X168510842Y-149142853D01*
X168270271Y-149095000D01*
X168646250Y-149095000D01*
X168805000Y-148936250D01*
X168805000Y-148843691D01*
X168708327Y-148610302D01*
X168529699Y-148431673D01*
X168296310Y-148335000D01*
X168005750Y-148335000D01*
X167847000Y-148493750D01*
X167847000Y-149085001D01*
X167593000Y-149085001D01*
X167593000Y-148493750D01*
X167525415Y-148426165D01*
X167789140Y-148162440D01*
X167960000Y-148162440D01*
X168195317Y-148118162D01*
X168298646Y-148051671D01*
X168300302Y-148053327D01*
X168533691Y-148150000D01*
X168774250Y-148150000D01*
X168933000Y-147991250D01*
X168933000Y-147267000D01*
X169187000Y-147267000D01*
X169187000Y-147991250D01*
X169345750Y-148150000D01*
X169586309Y-148150000D01*
X169819698Y-148053327D01*
X169998327Y-147874699D01*
X170095000Y-147641310D01*
X170095000Y-147425750D01*
X169936250Y-147267000D01*
X169187000Y-147267000D01*
X168933000Y-147267000D01*
X168913000Y-147267000D01*
X168913000Y-147013000D01*
X168933000Y-147013000D01*
X168933000Y-146993000D01*
X169187000Y-146993000D01*
X169187000Y-147013000D01*
X169936250Y-147013000D01*
X170095000Y-146854250D01*
X170095000Y-146638690D01*
X169998327Y-146405301D01*
X169929073Y-146336047D01*
X170067634Y-146128674D01*
X170082798Y-146052440D01*
X170135002Y-145789999D01*
X170135001Y-145789994D01*
X170135001Y-142132733D01*
X170306582Y-142098603D01*
X170465011Y-141992744D01*
X170465011Y-150903412D01*
X170465011Y-150903412D01*
G37*
X170465011Y-150903412D02*
X169351759Y-152016663D01*
X169323162Y-151864683D01*
X169295662Y-151821947D01*
X169305001Y-151774999D01*
X169305001Y-150169999D01*
X169247149Y-149879160D01*
X169082402Y-149632598D01*
X168757404Y-149307600D01*
X168510842Y-149142853D01*
X168270271Y-149095000D01*
X168646250Y-149095000D01*
X168805000Y-148936250D01*
X168805000Y-148843691D01*
X168708327Y-148610302D01*
X168529699Y-148431673D01*
X168296310Y-148335000D01*
X168005750Y-148335000D01*
X167847000Y-148493750D01*
X167847000Y-149085001D01*
X167593000Y-149085001D01*
X167593000Y-148493750D01*
X167525415Y-148426165D01*
X167789140Y-148162440D01*
X167960000Y-148162440D01*
X168195317Y-148118162D01*
X168298646Y-148051671D01*
X168300302Y-148053327D01*
X168533691Y-148150000D01*
X168774250Y-148150000D01*
X168933000Y-147991250D01*
X168933000Y-147267000D01*
X169187000Y-147267000D01*
X169187000Y-147991250D01*
X169345750Y-148150000D01*
X169586309Y-148150000D01*
X169819698Y-148053327D01*
X169998327Y-147874699D01*
X170095000Y-147641310D01*
X170095000Y-147425750D01*
X169936250Y-147267000D01*
X169187000Y-147267000D01*
X168933000Y-147267000D01*
X168913000Y-147267000D01*
X168913000Y-147013000D01*
X168933000Y-147013000D01*
X168933000Y-146993000D01*
X169187000Y-146993000D01*
X169187000Y-147013000D01*
X169936250Y-147013000D01*
X170095000Y-146854250D01*
X170095000Y-146638690D01*
X169998327Y-146405301D01*
X169929073Y-146336047D01*
X170067634Y-146128674D01*
X170082798Y-146052440D01*
X170135002Y-145789999D01*
X170135001Y-145789994D01*
X170135001Y-142132733D01*
X170306582Y-142098603D01*
X170465011Y-141992744D01*
X170465011Y-150903412D01*
G36*
X164090010Y-148723000D02*
X164210969Y-148723000D01*
X164314370Y-148793651D01*
X164566260Y-148844660D01*
X165567020Y-148844660D01*
X165802337Y-148800382D01*
X165830126Y-148782500D01*
X166660346Y-148782500D01*
X166635000Y-148843691D01*
X166635000Y-148936250D01*
X166783751Y-149085001D01*
X166151271Y-149085001D01*
X166043270Y-148977000D01*
X165922311Y-148977000D01*
X165818910Y-148906349D01*
X165567020Y-148855340D01*
X164566260Y-148855340D01*
X164330943Y-148899618D01*
X164210688Y-148977000D01*
X164090010Y-148977000D01*
X163956138Y-149110872D01*
X163917830Y-149051339D01*
X163705630Y-148906349D01*
X163453740Y-148855340D01*
X162940373Y-148855340D01*
X162951053Y-148844660D01*
X163453740Y-148844660D01*
X163689057Y-148800382D01*
X163905181Y-148661310D01*
X163955165Y-148588155D01*
X164090010Y-148723000D01*
X164090010Y-148723000D01*
G37*
X164090010Y-148723000D02*
X164210969Y-148723000D01*
X164314370Y-148793651D01*
X164566260Y-148844660D01*
X165567020Y-148844660D01*
X165802337Y-148800382D01*
X165830126Y-148782500D01*
X166660346Y-148782500D01*
X166635000Y-148843691D01*
X166635000Y-148936250D01*
X166783751Y-149085001D01*
X166151271Y-149085001D01*
X166043270Y-148977000D01*
X165922311Y-148977000D01*
X165818910Y-148906349D01*
X165567020Y-148855340D01*
X164566260Y-148855340D01*
X164330943Y-148899618D01*
X164210688Y-148977000D01*
X164090010Y-148977000D01*
X163956138Y-149110872D01*
X163917830Y-149051339D01*
X163705630Y-148906349D01*
X163453740Y-148855340D01*
X162940373Y-148855340D01*
X162951053Y-148844660D01*
X163453740Y-148844660D01*
X163689057Y-148800382D01*
X163905181Y-148661310D01*
X163955165Y-148588155D01*
X164090010Y-148723000D01*
G36*
X163775540Y-139627780D02*
X163775540Y-140227220D01*
X163809976Y-140410231D01*
X163775540Y-140580280D01*
X163775540Y-141179720D01*
X163809976Y-141362731D01*
X163775540Y-141532780D01*
X163775540Y-142132220D01*
X163819818Y-142367537D01*
X163958890Y-142583661D01*
X164171090Y-142728651D01*
X164422980Y-142779660D01*
X165423740Y-142779660D01*
X165659057Y-142735382D01*
X165875181Y-142596310D01*
X165977507Y-142446551D01*
X165988796Y-142454094D01*
X166072170Y-142583661D01*
X166284370Y-142728651D01*
X166536260Y-142779660D01*
X166732220Y-142779660D01*
X167465000Y-143512439D01*
X167465000Y-144056737D01*
X167376309Y-144020000D01*
X167135750Y-144020000D01*
X166977000Y-144178750D01*
X166977000Y-144903000D01*
X166997000Y-144903000D01*
X166997000Y-145157000D01*
X166977000Y-145157000D01*
X166977000Y-145881250D01*
X167135750Y-146040000D01*
X167158420Y-146040000D01*
X167062518Y-146135903D01*
X166924683Y-146161838D01*
X166708559Y-146300910D01*
X166563569Y-146513110D01*
X166512560Y-146765000D01*
X166512560Y-146935860D01*
X166435920Y-147012500D01*
X165835230Y-147012500D01*
X165818910Y-147001349D01*
X165567020Y-146950340D01*
X164615173Y-146950340D01*
X164808073Y-146757440D01*
X165085000Y-146757440D01*
X165320317Y-146713162D01*
X165536441Y-146574090D01*
X165681431Y-146361890D01*
X165732440Y-146110000D01*
X165732440Y-145315750D01*
X165815000Y-145315750D01*
X165815000Y-145531310D01*
X165911673Y-145764699D01*
X166090302Y-145943327D01*
X166323691Y-146040000D01*
X166564250Y-146040000D01*
X166723000Y-145881250D01*
X166723000Y-145157000D01*
X165973750Y-145157000D01*
X165815000Y-145315750D01*
X165732440Y-145315750D01*
X165732440Y-145310000D01*
X165688162Y-145074683D01*
X165621671Y-144971354D01*
X165623327Y-144969698D01*
X165720000Y-144736309D01*
X165720000Y-144528690D01*
X165815000Y-144528690D01*
X165815000Y-144744250D01*
X165973750Y-144903000D01*
X166723000Y-144903000D01*
X166723000Y-144178750D01*
X166564250Y-144020000D01*
X166323691Y-144020000D01*
X166090302Y-144116673D01*
X165911673Y-144295301D01*
X165815000Y-144528690D01*
X165720000Y-144528690D01*
X165720000Y-144495750D01*
X165561250Y-144337000D01*
X164837000Y-144337000D01*
X164837000Y-144357000D01*
X164583000Y-144357000D01*
X164583000Y-144337000D01*
X164563000Y-144337000D01*
X164563000Y-144083000D01*
X164583000Y-144083000D01*
X164583000Y-143333750D01*
X164837000Y-143333750D01*
X164837000Y-144083000D01*
X165561250Y-144083000D01*
X165720000Y-143924250D01*
X165720000Y-143683691D01*
X165623327Y-143450302D01*
X165444699Y-143271673D01*
X165211310Y-143175000D01*
X164995750Y-143175000D01*
X164837000Y-143333750D01*
X164583000Y-143333750D01*
X164424250Y-143175000D01*
X164208690Y-143175000D01*
X163975301Y-143271673D01*
X163970010Y-143276964D01*
X163970010Y-142997888D01*
X163912158Y-142707049D01*
X163747411Y-142460487D01*
X162679524Y-141392599D01*
X162482440Y-141260912D01*
X162482440Y-141055000D01*
X162462933Y-140951329D01*
X162482440Y-140855000D01*
X162482440Y-140405000D01*
X162469020Y-140333677D01*
X162470000Y-140331310D01*
X162470000Y-140251250D01*
X162449688Y-140230938D01*
X162438162Y-140169683D01*
X162299090Y-139953559D01*
X162173138Y-139867500D01*
X162311250Y-139867500D01*
X162470000Y-139708750D01*
X162470000Y-139628690D01*
X162433263Y-139540000D01*
X163745002Y-139540000D01*
X163795344Y-139529986D01*
X163775540Y-139627780D01*
X163775540Y-139627780D01*
G37*
X163775540Y-139627780D02*
X163775540Y-140227220D01*
X163809976Y-140410231D01*
X163775540Y-140580280D01*
X163775540Y-141179720D01*
X163809976Y-141362731D01*
X163775540Y-141532780D01*
X163775540Y-142132220D01*
X163819818Y-142367537D01*
X163958890Y-142583661D01*
X164171090Y-142728651D01*
X164422980Y-142779660D01*
X165423740Y-142779660D01*
X165659057Y-142735382D01*
X165875181Y-142596310D01*
X165977507Y-142446551D01*
X165988796Y-142454094D01*
X166072170Y-142583661D01*
X166284370Y-142728651D01*
X166536260Y-142779660D01*
X166732220Y-142779660D01*
X167465000Y-143512439D01*
X167465000Y-144056737D01*
X167376309Y-144020000D01*
X167135750Y-144020000D01*
X166977000Y-144178750D01*
X166977000Y-144903000D01*
X166997000Y-144903000D01*
X166997000Y-145157000D01*
X166977000Y-145157000D01*
X166977000Y-145881250D01*
X167135750Y-146040000D01*
X167158420Y-146040000D01*
X167062518Y-146135903D01*
X166924683Y-146161838D01*
X166708559Y-146300910D01*
X166563569Y-146513110D01*
X166512560Y-146765000D01*
X166512560Y-146935860D01*
X166435920Y-147012500D01*
X165835230Y-147012500D01*
X165818910Y-147001349D01*
X165567020Y-146950340D01*
X164615173Y-146950340D01*
X164808073Y-146757440D01*
X165085000Y-146757440D01*
X165320317Y-146713162D01*
X165536441Y-146574090D01*
X165681431Y-146361890D01*
X165732440Y-146110000D01*
X165732440Y-145315750D01*
X165815000Y-145315750D01*
X165815000Y-145531310D01*
X165911673Y-145764699D01*
X166090302Y-145943327D01*
X166323691Y-146040000D01*
X166564250Y-146040000D01*
X166723000Y-145881250D01*
X166723000Y-145157000D01*
X165973750Y-145157000D01*
X165815000Y-145315750D01*
X165732440Y-145315750D01*
X165732440Y-145310000D01*
X165688162Y-145074683D01*
X165621671Y-144971354D01*
X165623327Y-144969698D01*
X165720000Y-144736309D01*
X165720000Y-144528690D01*
X165815000Y-144528690D01*
X165815000Y-144744250D01*
X165973750Y-144903000D01*
X166723000Y-144903000D01*
X166723000Y-144178750D01*
X166564250Y-144020000D01*
X166323691Y-144020000D01*
X166090302Y-144116673D01*
X165911673Y-144295301D01*
X165815000Y-144528690D01*
X165720000Y-144528690D01*
X165720000Y-144495750D01*
X165561250Y-144337000D01*
X164837000Y-144337000D01*
X164837000Y-144357000D01*
X164583000Y-144357000D01*
X164583000Y-144337000D01*
X164563000Y-144337000D01*
X164563000Y-144083000D01*
X164583000Y-144083000D01*
X164583000Y-143333750D01*
X164837000Y-143333750D01*
X164837000Y-144083000D01*
X165561250Y-144083000D01*
X165720000Y-143924250D01*
X165720000Y-143683691D01*
X165623327Y-143450302D01*
X165444699Y-143271673D01*
X165211310Y-143175000D01*
X164995750Y-143175000D01*
X164837000Y-143333750D01*
X164583000Y-143333750D01*
X164424250Y-143175000D01*
X164208690Y-143175000D01*
X163975301Y-143271673D01*
X163970010Y-143276964D01*
X163970010Y-142997888D01*
X163912158Y-142707049D01*
X163747411Y-142460487D01*
X162679524Y-141392599D01*
X162482440Y-141260912D01*
X162482440Y-141055000D01*
X162462933Y-140951329D01*
X162482440Y-140855000D01*
X162482440Y-140405000D01*
X162469020Y-140333677D01*
X162470000Y-140331310D01*
X162470000Y-140251250D01*
X162449688Y-140230938D01*
X162438162Y-140169683D01*
X162299090Y-139953559D01*
X162173138Y-139867500D01*
X162311250Y-139867500D01*
X162470000Y-139708750D01*
X162470000Y-139628690D01*
X162433263Y-139540000D01*
X163745002Y-139540000D01*
X163795344Y-139529986D01*
X163775540Y-139627780D01*
G36*
X141712995Y-145515605D02*
X141731222Y-145607236D01*
X141757367Y-145738675D01*
X141869402Y-145906348D01*
X141777000Y-145998750D01*
X141777000Y-146723000D01*
X141797000Y-146723000D01*
X141797000Y-146840001D01*
X141634999Y-146840001D01*
X141634999Y-145462313D01*
X141712995Y-145515605D01*
X141712995Y-145515605D01*
G37*
X141712995Y-145515605D02*
X141731222Y-145607236D01*
X141757367Y-145738675D01*
X141869402Y-145906348D01*
X141777000Y-145998750D01*
X141777000Y-146723000D01*
X141797000Y-146723000D01*
X141797000Y-146840001D01*
X141634999Y-146840001D01*
X141634999Y-145462313D01*
X141712995Y-145515605D01*
G36*
X145504632Y-137419990D02*
X145530076Y-137547906D01*
X145651445Y-137729548D01*
X145721919Y-137835021D01*
X148406899Y-140520000D01*
X147512894Y-140520000D01*
X147222055Y-140577852D01*
X146975493Y-140742599D01*
X144512599Y-143205493D01*
X144347852Y-143452055D01*
X144344895Y-143466921D01*
X144340209Y-143462873D01*
X144081874Y-143355881D01*
X143907000Y-143482046D01*
X143907000Y-144323000D01*
X143927000Y-144323000D01*
X143927000Y-144367436D01*
X143915000Y-144427764D01*
X143915000Y-144472236D01*
X143927000Y-144532564D01*
X143927000Y-144577000D01*
X143907000Y-144577000D01*
X143907000Y-144597000D01*
X143657440Y-144597000D01*
X143657440Y-143950000D01*
X143653000Y-143926403D01*
X143653000Y-143482046D01*
X143478126Y-143355881D01*
X143345602Y-143410767D01*
X143261890Y-143353569D01*
X143010000Y-143302560D01*
X142010000Y-143302560D01*
X141774683Y-143346838D01*
X141634999Y-143436722D01*
X141634999Y-141246579D01*
X145497490Y-137384087D01*
X145504632Y-137419990D01*
X145504632Y-137419990D01*
G37*
X145504632Y-137419990D02*
X145530076Y-137547906D01*
X145651445Y-137729548D01*
X145721919Y-137835021D01*
X148406899Y-140520000D01*
X147512894Y-140520000D01*
X147222055Y-140577852D01*
X146975493Y-140742599D01*
X144512599Y-143205493D01*
X144347852Y-143452055D01*
X144344895Y-143466921D01*
X144340209Y-143462873D01*
X144081874Y-143355881D01*
X143907000Y-143482046D01*
X143907000Y-144323000D01*
X143927000Y-144323000D01*
X143927000Y-144367436D01*
X143915000Y-144427764D01*
X143915000Y-144472236D01*
X143927000Y-144532564D01*
X143927000Y-144577000D01*
X143907000Y-144577000D01*
X143907000Y-144597000D01*
X143657440Y-144597000D01*
X143657440Y-143950000D01*
X143653000Y-143926403D01*
X143653000Y-143482046D01*
X143478126Y-143355881D01*
X143345602Y-143410767D01*
X143261890Y-143353569D01*
X143010000Y-143302560D01*
X142010000Y-143302560D01*
X141774683Y-143346838D01*
X141634999Y-143436722D01*
X141634999Y-141246579D01*
X145497490Y-137384087D01*
X145504632Y-137419990D01*
G36*
X167183640Y-140885340D02*
X166889640Y-140885340D01*
X166889640Y-140874660D01*
X167183640Y-140874660D01*
X167183640Y-140885340D01*
X167183640Y-140885340D01*
G37*
X167183640Y-140885340D02*
X166889640Y-140885340D01*
X166889640Y-140874660D01*
X167183640Y-140874660D01*
X167183640Y-140885340D01*
G36*
X171290000Y-133746717D02*
X171030000Y-133694999D01*
X171029995Y-133695000D01*
X168715000Y-133695000D01*
X168715000Y-131130000D01*
X168657148Y-130839161D01*
X168657148Y-130839160D01*
X168492401Y-130592599D01*
X168352440Y-130452638D01*
X168352440Y-130080000D01*
X168308162Y-129844683D01*
X168241671Y-129741354D01*
X168243327Y-129739698D01*
X168340000Y-129506309D01*
X168340000Y-129265750D01*
X168181250Y-129107000D01*
X167457000Y-129107000D01*
X167457000Y-129127000D01*
X167203000Y-129127000D01*
X167203000Y-129107000D01*
X166478750Y-129107000D01*
X166320000Y-129265750D01*
X166320000Y-129506309D01*
X166416673Y-129739698D01*
X166418043Y-129741068D01*
X166358569Y-129828110D01*
X166307560Y-130080000D01*
X166307560Y-130440073D01*
X166167852Y-130649161D01*
X166110000Y-130940000D01*
X166110000Y-131444895D01*
X165968559Y-131535910D01*
X165823569Y-131748110D01*
X165772560Y-132000000D01*
X165772560Y-132500000D01*
X165816838Y-132735317D01*
X165955910Y-132951441D01*
X166012343Y-132990000D01*
X165310149Y-132990000D01*
X165310149Y-132474231D01*
X165265871Y-132238914D01*
X165197709Y-132132987D01*
X165197709Y-130034033D01*
X166428746Y-128802996D01*
X166478750Y-128853000D01*
X167203000Y-128853000D01*
X167203000Y-128103750D01*
X167457000Y-128103750D01*
X167457000Y-128853000D01*
X168181250Y-128853000D01*
X168340000Y-128694250D01*
X168340000Y-128453691D01*
X168243327Y-128220302D01*
X168064699Y-128041673D01*
X167831310Y-127945000D01*
X167615750Y-127945000D01*
X167457000Y-128103750D01*
X167203000Y-128103750D01*
X167165496Y-128066246D01*
X167295071Y-127936671D01*
X167767709Y-127936671D01*
X168003026Y-127892393D01*
X168219150Y-127753321D01*
X168364140Y-127541121D01*
X168415149Y-127289231D01*
X168415149Y-126789231D01*
X168370871Y-126553914D01*
X168231799Y-126337790D01*
X168161998Y-126290097D01*
X168219150Y-126253321D01*
X168364140Y-126041121D01*
X168415149Y-125789231D01*
X168415149Y-125289231D01*
X168370871Y-125053914D01*
X168277709Y-124909136D01*
X168277709Y-124437617D01*
X168364140Y-124311121D01*
X168415149Y-124059231D01*
X168415149Y-123159231D01*
X168370871Y-122923914D01*
X168231799Y-122707790D01*
X168019599Y-122562800D01*
X167767709Y-122511791D01*
X167267709Y-122511791D01*
X167032392Y-122556069D01*
X166816268Y-122695141D01*
X166768575Y-122764942D01*
X166731799Y-122707790D01*
X166519599Y-122562800D01*
X166267709Y-122511791D01*
X165767709Y-122511791D01*
X165532392Y-122556069D01*
X165316268Y-122695141D01*
X165210983Y-122849231D01*
X164846379Y-122849231D01*
X164761799Y-122717790D01*
X164549599Y-122572800D01*
X164297709Y-122521791D01*
X163797709Y-122521791D01*
X163562392Y-122566069D01*
X163346268Y-122705141D01*
X163298575Y-122774942D01*
X163261799Y-122717790D01*
X163049599Y-122572800D01*
X162797709Y-122521791D01*
X162297709Y-122521791D01*
X162062392Y-122566069D01*
X161846268Y-122705141D01*
X161772380Y-122813279D01*
X161568548Y-122677083D01*
X161458820Y-122655257D01*
X161279599Y-122532800D01*
X161027709Y-122481791D01*
X160127709Y-122481791D01*
X159892392Y-122526069D01*
X159676268Y-122665141D01*
X159531278Y-122877341D01*
X159530325Y-122882045D01*
X159310110Y-122661830D01*
X159063548Y-122497083D01*
X158772709Y-122439231D01*
X157588937Y-122439231D01*
X157649140Y-122351121D01*
X157700149Y-122099231D01*
X157700149Y-121299231D01*
X157655871Y-121063914D01*
X157516799Y-120847790D01*
X157304599Y-120702800D01*
X157052709Y-120651791D01*
X156302709Y-120651791D01*
X156067392Y-120696069D01*
X155851268Y-120835141D01*
X155780146Y-120939231D01*
X152656095Y-120939231D01*
X152529599Y-120852800D01*
X152277709Y-120801791D01*
X151377709Y-120801791D01*
X151316574Y-120813294D01*
X150780109Y-120276829D01*
X150533547Y-120112082D01*
X150242708Y-120054230D01*
X145687708Y-120054230D01*
X145396869Y-120112082D01*
X145150307Y-120276829D01*
X141095307Y-124331829D01*
X140930560Y-124578391D01*
X140872708Y-124869230D01*
X140872708Y-133014230D01*
X140930560Y-133305069D01*
X141095307Y-133551631D01*
X142830269Y-135286593D01*
X142830269Y-135359231D01*
X142874547Y-135594548D01*
X143013619Y-135810672D01*
X143225819Y-135955662D01*
X143477709Y-136006671D01*
X144371748Y-136006671D01*
X140710000Y-139668418D01*
X140710000Y-119830000D01*
X171290000Y-119830000D01*
X171290000Y-133746717D01*
X171290000Y-133746717D01*
G37*
X171290000Y-133746717D02*
X171030000Y-133694999D01*
X171029995Y-133695000D01*
X168715000Y-133695000D01*
X168715000Y-131130000D01*
X168657148Y-130839161D01*
X168657148Y-130839160D01*
X168492401Y-130592599D01*
X168352440Y-130452638D01*
X168352440Y-130080000D01*
X168308162Y-129844683D01*
X168241671Y-129741354D01*
X168243327Y-129739698D01*
X168340000Y-129506309D01*
X168340000Y-129265750D01*
X168181250Y-129107000D01*
X167457000Y-129107000D01*
X167457000Y-129127000D01*
X167203000Y-129127000D01*
X167203000Y-129107000D01*
X166478750Y-129107000D01*
X166320000Y-129265750D01*
X166320000Y-129506309D01*
X166416673Y-129739698D01*
X166418043Y-129741068D01*
X166358569Y-129828110D01*
X166307560Y-130080000D01*
X166307560Y-130440073D01*
X166167852Y-130649161D01*
X166110000Y-130940000D01*
X166110000Y-131444895D01*
X165968559Y-131535910D01*
X165823569Y-131748110D01*
X165772560Y-132000000D01*
X165772560Y-132500000D01*
X165816838Y-132735317D01*
X165955910Y-132951441D01*
X166012343Y-132990000D01*
X165310149Y-132990000D01*
X165310149Y-132474231D01*
X165265871Y-132238914D01*
X165197709Y-132132987D01*
X165197709Y-130034033D01*
X166428746Y-128802996D01*
X166478750Y-128853000D01*
X167203000Y-128853000D01*
X167203000Y-128103750D01*
X167457000Y-128103750D01*
X167457000Y-128853000D01*
X168181250Y-128853000D01*
X168340000Y-128694250D01*
X168340000Y-128453691D01*
X168243327Y-128220302D01*
X168064699Y-128041673D01*
X167831310Y-127945000D01*
X167615750Y-127945000D01*
X167457000Y-128103750D01*
X167203000Y-128103750D01*
X167165496Y-128066246D01*
X167295071Y-127936671D01*
X167767709Y-127936671D01*
X168003026Y-127892393D01*
X168219150Y-127753321D01*
X168364140Y-127541121D01*
X168415149Y-127289231D01*
X168415149Y-126789231D01*
X168370871Y-126553914D01*
X168231799Y-126337790D01*
X168161998Y-126290097D01*
X168219150Y-126253321D01*
X168364140Y-126041121D01*
X168415149Y-125789231D01*
X168415149Y-125289231D01*
X168370871Y-125053914D01*
X168277709Y-124909136D01*
X168277709Y-124437617D01*
X168364140Y-124311121D01*
X168415149Y-124059231D01*
X168415149Y-123159231D01*
X168370871Y-122923914D01*
X168231799Y-122707790D01*
X168019599Y-122562800D01*
X167767709Y-122511791D01*
X167267709Y-122511791D01*
X167032392Y-122556069D01*
X166816268Y-122695141D01*
X166768575Y-122764942D01*
X166731799Y-122707790D01*
X166519599Y-122562800D01*
X166267709Y-122511791D01*
X165767709Y-122511791D01*
X165532392Y-122556069D01*
X165316268Y-122695141D01*
X165210983Y-122849231D01*
X164846379Y-122849231D01*
X164761799Y-122717790D01*
X164549599Y-122572800D01*
X164297709Y-122521791D01*
X163797709Y-122521791D01*
X163562392Y-122566069D01*
X163346268Y-122705141D01*
X163298575Y-122774942D01*
X163261799Y-122717790D01*
X163049599Y-122572800D01*
X162797709Y-122521791D01*
X162297709Y-122521791D01*
X162062392Y-122566069D01*
X161846268Y-122705141D01*
X161772380Y-122813279D01*
X161568548Y-122677083D01*
X161458820Y-122655257D01*
X161279599Y-122532800D01*
X161027709Y-122481791D01*
X160127709Y-122481791D01*
X159892392Y-122526069D01*
X159676268Y-122665141D01*
X159531278Y-122877341D01*
X159530325Y-122882045D01*
X159310110Y-122661830D01*
X159063548Y-122497083D01*
X158772709Y-122439231D01*
X157588937Y-122439231D01*
X157649140Y-122351121D01*
X157700149Y-122099231D01*
X157700149Y-121299231D01*
X157655871Y-121063914D01*
X157516799Y-120847790D01*
X157304599Y-120702800D01*
X157052709Y-120651791D01*
X156302709Y-120651791D01*
X156067392Y-120696069D01*
X155851268Y-120835141D01*
X155780146Y-120939231D01*
X152656095Y-120939231D01*
X152529599Y-120852800D01*
X152277709Y-120801791D01*
X151377709Y-120801791D01*
X151316574Y-120813294D01*
X150780109Y-120276829D01*
X150533547Y-120112082D01*
X150242708Y-120054230D01*
X145687708Y-120054230D01*
X145396869Y-120112082D01*
X145150307Y-120276829D01*
X141095307Y-124331829D01*
X140930560Y-124578391D01*
X140872708Y-124869230D01*
X140872708Y-133014230D01*
X140930560Y-133305069D01*
X141095307Y-133551631D01*
X142830269Y-135286593D01*
X142830269Y-135359231D01*
X142874547Y-135594548D01*
X143013619Y-135810672D01*
X143225819Y-135955662D01*
X143477709Y-136006671D01*
X144371748Y-136006671D01*
X140710000Y-139668418D01*
X140710000Y-119830000D01*
X171290000Y-119830000D01*
X171290000Y-133746717D01*
G36*
X169182560Y-136320000D02*
X169187000Y-136343597D01*
X169187000Y-136787954D01*
X169361874Y-136914119D01*
X169494398Y-136859233D01*
X169578110Y-136916431D01*
X169678594Y-136936779D01*
X169792599Y-137107401D01*
X169965001Y-137279803D01*
X169965001Y-137362560D01*
X169350000Y-137362560D01*
X169114683Y-137406838D01*
X168898559Y-137545910D01*
X168843658Y-137626261D01*
X168567516Y-137681190D01*
X168511325Y-137692367D01*
X168224210Y-137884210D01*
X168224208Y-137884213D01*
X168133835Y-137974585D01*
X168056250Y-137897000D01*
X167307000Y-137897000D01*
X167307000Y-138621250D01*
X167465750Y-138780000D01*
X167660577Y-138780000D01*
X167652030Y-138822969D01*
X167652031Y-138822974D01*
X167652031Y-139003630D01*
X167537020Y-138980340D01*
X166536260Y-138980340D01*
X166300943Y-139024618D01*
X166273154Y-139042500D01*
X165808360Y-139042500D01*
X165808360Y-138893220D01*
X165909140Y-138792440D01*
X166080000Y-138792440D01*
X166315317Y-138748162D01*
X166418646Y-138681671D01*
X166420302Y-138683327D01*
X166653691Y-138780000D01*
X166894250Y-138780000D01*
X167053000Y-138621250D01*
X167053000Y-137897000D01*
X167033000Y-137897000D01*
X167033000Y-137643000D01*
X167053000Y-137643000D01*
X167053000Y-137623000D01*
X167307000Y-137623000D01*
X167307000Y-137643000D01*
X168056250Y-137643000D01*
X168215000Y-137484250D01*
X168215000Y-137268690D01*
X168118327Y-137035301D01*
X167939698Y-136856673D01*
X167706309Y-136760000D01*
X167465750Y-136760000D01*
X167307002Y-136918748D01*
X167307002Y-136823477D01*
X167980158Y-136150321D01*
X168164677Y-136517604D01*
X168499791Y-136807127D01*
X168758126Y-136914119D01*
X168933000Y-136787954D01*
X168933000Y-135947000D01*
X168913000Y-135947000D01*
X168913000Y-135693000D01*
X168933000Y-135693000D01*
X168933000Y-135673000D01*
X169182560Y-135673000D01*
X169182560Y-136320000D01*
X169182560Y-136320000D01*
G37*
X169182560Y-136320000D02*
X169187000Y-136343597D01*
X169187000Y-136787954D01*
X169361874Y-136914119D01*
X169494398Y-136859233D01*
X169578110Y-136916431D01*
X169678594Y-136936779D01*
X169792599Y-137107401D01*
X169965001Y-137279803D01*
X169965001Y-137362560D01*
X169350000Y-137362560D01*
X169114683Y-137406838D01*
X168898559Y-137545910D01*
X168843658Y-137626261D01*
X168567516Y-137681190D01*
X168511325Y-137692367D01*
X168224210Y-137884210D01*
X168224208Y-137884213D01*
X168133835Y-137974585D01*
X168056250Y-137897000D01*
X167307000Y-137897000D01*
X167307000Y-138621250D01*
X167465750Y-138780000D01*
X167660577Y-138780000D01*
X167652030Y-138822969D01*
X167652031Y-138822974D01*
X167652031Y-139003630D01*
X167537020Y-138980340D01*
X166536260Y-138980340D01*
X166300943Y-139024618D01*
X166273154Y-139042500D01*
X165808360Y-139042500D01*
X165808360Y-138893220D01*
X165909140Y-138792440D01*
X166080000Y-138792440D01*
X166315317Y-138748162D01*
X166418646Y-138681671D01*
X166420302Y-138683327D01*
X166653691Y-138780000D01*
X166894250Y-138780000D01*
X167053000Y-138621250D01*
X167053000Y-137897000D01*
X167033000Y-137897000D01*
X167033000Y-137643000D01*
X167053000Y-137643000D01*
X167053000Y-137623000D01*
X167307000Y-137623000D01*
X167307000Y-137643000D01*
X168056250Y-137643000D01*
X168215000Y-137484250D01*
X168215000Y-137268690D01*
X168118327Y-137035301D01*
X167939698Y-136856673D01*
X167706309Y-136760000D01*
X167465750Y-136760000D01*
X167307002Y-136918748D01*
X167307002Y-136823477D01*
X167980158Y-136150321D01*
X168164677Y-136517604D01*
X168499791Y-136807127D01*
X168758126Y-136914119D01*
X168933000Y-136787954D01*
X168933000Y-135947000D01*
X168913000Y-135947000D01*
X168913000Y-135693000D01*
X168933000Y-135693000D01*
X168933000Y-135673000D01*
X169182560Y-135673000D01*
X169182560Y-136320000D01*
G36*
X147689382Y-135879533D02*
X147592709Y-136112922D01*
X147592709Y-136205481D01*
X147751459Y-136364231D01*
X148550709Y-136364231D01*
X148550709Y-136342231D01*
X148804709Y-136342231D01*
X148804709Y-136364231D01*
X149603959Y-136364231D01*
X149762709Y-136205481D01*
X149762709Y-136112922D01*
X149666036Y-135879533D01*
X149535735Y-135749231D01*
X150296223Y-135749231D01*
X150207709Y-135962922D01*
X150207709Y-136203481D01*
X150366459Y-136362231D01*
X151090709Y-136362231D01*
X151090709Y-136342231D01*
X151344709Y-136342231D01*
X151344709Y-136362231D01*
X151364709Y-136362231D01*
X151364709Y-136616231D01*
X151344709Y-136616231D01*
X151344709Y-137365481D01*
X151503459Y-137524231D01*
X151719019Y-137524231D01*
X151952408Y-137427558D01*
X152131036Y-137248929D01*
X152227709Y-137015540D01*
X152227709Y-136774981D01*
X152068961Y-136616233D01*
X152227709Y-136616233D01*
X152227709Y-136614033D01*
X152250308Y-136636632D01*
X152496870Y-136801379D01*
X152787709Y-136859231D01*
X153181405Y-136859231D01*
X152970302Y-136946673D01*
X152791673Y-137125301D01*
X152695000Y-137358690D01*
X152695000Y-137574250D01*
X152853750Y-137733000D01*
X153603000Y-137733000D01*
X153603000Y-137713000D01*
X153857000Y-137713000D01*
X153857000Y-137733000D01*
X153877000Y-137733000D01*
X153877000Y-137987000D01*
X153857000Y-137987000D01*
X153857000Y-138711250D01*
X154015750Y-138870000D01*
X154256309Y-138870000D01*
X154325000Y-138841547D01*
X154325000Y-139019999D01*
X149410056Y-139019999D01*
X148535808Y-138145750D01*
X152695000Y-138145750D01*
X152695000Y-138361310D01*
X152791673Y-138594699D01*
X152970302Y-138773327D01*
X153203691Y-138870000D01*
X153444250Y-138870000D01*
X153603000Y-138711250D01*
X153603000Y-137987000D01*
X152853750Y-137987000D01*
X152695000Y-138145750D01*
X148535808Y-138145750D01*
X147376701Y-136986643D01*
X147394140Y-136961121D01*
X147432239Y-136772981D01*
X147592709Y-136772981D01*
X147592709Y-136865540D01*
X147689382Y-137098929D01*
X147868010Y-137277558D01*
X148101399Y-137374231D01*
X148391959Y-137374231D01*
X148550709Y-137215481D01*
X148550709Y-136614231D01*
X148804709Y-136614231D01*
X148804709Y-137215481D01*
X148963459Y-137374231D01*
X149254019Y-137374231D01*
X149487408Y-137277558D01*
X149666036Y-137098929D01*
X149762709Y-136865540D01*
X149762709Y-136774981D01*
X150207709Y-136774981D01*
X150207709Y-137015540D01*
X150304382Y-137248929D01*
X150483010Y-137427558D01*
X150716399Y-137524231D01*
X150931959Y-137524231D01*
X151090709Y-137365481D01*
X151090709Y-136616231D01*
X150366459Y-136616231D01*
X150207709Y-136774981D01*
X149762709Y-136774981D01*
X149762709Y-136772981D01*
X149603959Y-136614231D01*
X148804709Y-136614231D01*
X148550709Y-136614231D01*
X147751459Y-136614231D01*
X147592709Y-136772981D01*
X147432239Y-136772981D01*
X147445149Y-136709231D01*
X147445149Y-136209231D01*
X147400871Y-135973914D01*
X147261799Y-135757790D01*
X147249272Y-135749231D01*
X147819683Y-135749231D01*
X147689382Y-135879533D01*
X147689382Y-135879533D01*
G37*
X147689382Y-135879533D02*
X147592709Y-136112922D01*
X147592709Y-136205481D01*
X147751459Y-136364231D01*
X148550709Y-136364231D01*
X148550709Y-136342231D01*
X148804709Y-136342231D01*
X148804709Y-136364231D01*
X149603959Y-136364231D01*
X149762709Y-136205481D01*
X149762709Y-136112922D01*
X149666036Y-135879533D01*
X149535735Y-135749231D01*
X150296223Y-135749231D01*
X150207709Y-135962922D01*
X150207709Y-136203481D01*
X150366459Y-136362231D01*
X151090709Y-136362231D01*
X151090709Y-136342231D01*
X151344709Y-136342231D01*
X151344709Y-136362231D01*
X151364709Y-136362231D01*
X151364709Y-136616231D01*
X151344709Y-136616231D01*
X151344709Y-137365481D01*
X151503459Y-137524231D01*
X151719019Y-137524231D01*
X151952408Y-137427558D01*
X152131036Y-137248929D01*
X152227709Y-137015540D01*
X152227709Y-136774981D01*
X152068961Y-136616233D01*
X152227709Y-136616233D01*
X152227709Y-136614033D01*
X152250308Y-136636632D01*
X152496870Y-136801379D01*
X152787709Y-136859231D01*
X153181405Y-136859231D01*
X152970302Y-136946673D01*
X152791673Y-137125301D01*
X152695000Y-137358690D01*
X152695000Y-137574250D01*
X152853750Y-137733000D01*
X153603000Y-137733000D01*
X153603000Y-137713000D01*
X153857000Y-137713000D01*
X153857000Y-137733000D01*
X153877000Y-137733000D01*
X153877000Y-137987000D01*
X153857000Y-137987000D01*
X153857000Y-138711250D01*
X154015750Y-138870000D01*
X154256309Y-138870000D01*
X154325000Y-138841547D01*
X154325000Y-139019999D01*
X149410056Y-139019999D01*
X148535808Y-138145750D01*
X152695000Y-138145750D01*
X152695000Y-138361310D01*
X152791673Y-138594699D01*
X152970302Y-138773327D01*
X153203691Y-138870000D01*
X153444250Y-138870000D01*
X153603000Y-138711250D01*
X153603000Y-137987000D01*
X152853750Y-137987000D01*
X152695000Y-138145750D01*
X148535808Y-138145750D01*
X147376701Y-136986643D01*
X147394140Y-136961121D01*
X147432239Y-136772981D01*
X147592709Y-136772981D01*
X147592709Y-136865540D01*
X147689382Y-137098929D01*
X147868010Y-137277558D01*
X148101399Y-137374231D01*
X148391959Y-137374231D01*
X148550709Y-137215481D01*
X148550709Y-136614231D01*
X148804709Y-136614231D01*
X148804709Y-137215481D01*
X148963459Y-137374231D01*
X149254019Y-137374231D01*
X149487408Y-137277558D01*
X149666036Y-137098929D01*
X149762709Y-136865540D01*
X149762709Y-136774981D01*
X150207709Y-136774981D01*
X150207709Y-137015540D01*
X150304382Y-137248929D01*
X150483010Y-137427558D01*
X150716399Y-137524231D01*
X150931959Y-137524231D01*
X151090709Y-137365481D01*
X151090709Y-136616231D01*
X150366459Y-136616231D01*
X150207709Y-136774981D01*
X149762709Y-136774981D01*
X149762709Y-136772981D01*
X149603959Y-136614231D01*
X148804709Y-136614231D01*
X148550709Y-136614231D01*
X147751459Y-136614231D01*
X147592709Y-136772981D01*
X147432239Y-136772981D01*
X147445149Y-136709231D01*
X147445149Y-136209231D01*
X147400871Y-135973914D01*
X147261799Y-135757790D01*
X147249272Y-135749231D01*
X147819683Y-135749231D01*
X147689382Y-135879533D01*
G36*
X158310016Y-130964232D02*
X157207510Y-130964232D01*
X157637303Y-130534439D01*
X157697709Y-130546671D01*
X158597709Y-130546671D01*
X158757677Y-130516571D01*
X158310016Y-130964232D01*
X158310016Y-130964232D01*
G37*
X158310016Y-130964232D02*
X157207510Y-130964232D01*
X157637303Y-130534439D01*
X157697709Y-130546671D01*
X158597709Y-130546671D01*
X158757677Y-130516571D01*
X158310016Y-130964232D01*
G36*
X153329406Y-123996687D02*
X153226870Y-124017083D01*
X152980308Y-124181830D01*
X152850308Y-124311830D01*
X152685561Y-124558392D01*
X152627709Y-124849231D01*
X152627709Y-125854126D01*
X152587709Y-125879865D01*
X152587709Y-124004336D01*
X152626723Y-123979231D01*
X153356533Y-123979231D01*
X153329406Y-123996687D01*
X153329406Y-123996687D01*
G37*
X153329406Y-123996687D02*
X153226870Y-124017083D01*
X152980308Y-124181830D01*
X152850308Y-124311830D01*
X152685561Y-124558392D01*
X152627709Y-124849231D01*
X152627709Y-125854126D01*
X152587709Y-125879865D01*
X152587709Y-124004336D01*
X152626723Y-123979231D01*
X153356533Y-123979231D01*
X153329406Y-123996687D01*
M02*
