M48
;DRILL file {KiCad 4.0.2-stable} date 24/04/2017 01:49:12 p.m.
;FORMAT={-:-/ absolute / metric / decimal}
FMAT,2
METRIC,TZ
T1C0.400
T2C0.500
T3C0.650
%
G90
G05
M71
T1
X143.925Y-141.125
X150.3Y-138.55
X151.325Y-150.325
T3
X142.51Y-144.45
X143.39Y-150.34
X143.78Y-144.45
X144.66Y-150.34
X145.05Y-144.45
X145.93Y-150.34
X146.32Y-144.45
X146.608Y-121.689
X147.2Y-150.34
X147.59Y-144.45
X147.878Y-121.689
X148.47Y-150.34
X148.86Y-144.45
X149.148Y-121.689
X150.13Y-144.45
X151.4Y-144.45
X152.703Y-124.222
X157.94Y-130.849
X162.835Y-141.26
X163.54Y-152.29
X164.81Y-152.29
X167.05Y-143.29
X169.06Y-135.82
X169.85Y-138.51
X169.85Y-139.78
X169.85Y-141.05
X169.86Y-128.7
X170.33Y-135.82
T2
X152.8Y-152.225G85X152.1Y-152.225
G05
X155.75Y-150.065G85X154.65Y-150.065
G05
X158.4Y-152.225G85X157.7Y-152.225
G05
T0
M30
