M48
;DRILL file {KiCad 4.0.2-stable} date 11/04/2017 03:14:22 p.m.
;FORMAT={-:-/ absolute / inch / decimal}
FMAT,2
INCH,TZ
T1C0.020
T2C0.026
%
G90
G05
M72
T2
X5.6098Y-5.6898
X5.6453Y-5.9189
X5.6598Y-5.6898
X5.6953Y-5.9189
X5.7098Y-5.6898
X5.7453Y-5.9189
X5.7598Y-5.6898
X5.772Y-4.7909
X5.7953Y-5.9189
X5.8098Y-5.6898
X5.822Y-4.7909
X5.8453Y-5.9189
X5.8598Y-5.6898
X5.872Y-4.7909
X5.9083Y-5.4677
X5.9098Y-5.6898
X5.9598Y-5.6898
X5.9715Y-5.9045
X6.0119Y-4.8906
X6.0283Y-5.6913
X6.2181Y-5.1515
X6.4108Y-5.5614
X6.4386Y-5.9957
X6.4886Y-5.9957
X6.5768Y-5.6413
X6.6559Y-5.3472
X6.687Y-5.4531
X6.687Y-5.5031
X6.687Y-5.5531
X6.6874Y-5.0669
X6.7059Y-5.3472
T1
X6.0157Y-5.9931G85X5.9882Y-5.9931
G05
X6.1319Y-5.9081G85X6.0886Y-5.9081
G05
X6.2362Y-5.9931G85X6.2087Y-5.9931
G05
T0
M30
